<svg width="1109" height="1042" viewBox="0 0 1109 1042" fill="none" xmlns="http://www.w3.org/2000/svg">
<mask id="mask0_109_2" style="mask-type:alpha" maskUnits="userSpaceOnUse" x="0" y="-760" width="1802" height="1802">
<rect x="900.66" y="1041.04" width="1273.33" height="1273.33" transform="rotate(-135 900.66 1041.04)" fill="url(#paint0_linear_109_2)"/>
</mask>
<g mask="url(#mask0_109_2)">
<g opacity="0.5" filter="url(#filter0_i_109_2)">
<circle cx="900.66" cy="140.66" r="534.981" transform="rotate(-135 900.66 140.66)" fill="#FFC600" fill-opacity="0.64"/>
</g>
<g filter="url(#filter1_i_109_2)">
<path d="M507.815 573.691C496.963 586.068 477.907 586.693 466.268 575.053V575.053C454.628 563.414 455.253 544.358 467.63 533.506L674.819 351.84C678.935 348.231 685.145 348.435 689.015 352.306V352.306C692.886 356.176 693.09 362.386 689.481 366.502L507.815 573.691Z" fill="url(#paint1_linear_109_2)"/>
<path d="M507.815 573.691C496.963 586.068 477.907 586.693 466.268 575.053V575.053C454.628 563.414 455.253 544.358 467.63 533.506L674.819 351.84C678.935 348.231 685.145 348.435 689.015 352.306V352.306C692.886 356.176 693.09 362.386 689.481 366.502L507.815 573.691Z" fill="#FFC600" fill-opacity="0.2"/>
</g>
<g filter="url(#filter2_i_109_2)">
<path d="M1333.69 533.505C1346.07 544.358 1346.69 563.413 1335.05 575.052V575.052C1323.41 586.692 1304.36 586.067 1293.51 573.69L1111.84 366.501C1108.23 362.385 1108.43 356.175 1112.31 352.305V352.305C1116.18 348.434 1122.39 348.231 1126.5 351.839L1333.69 533.505Z" fill="url(#paint2_linear_109_2)"/>
<path d="M1333.69 533.505C1346.07 544.358 1346.69 563.413 1335.05 575.052V575.052C1323.41 586.692 1304.36 586.067 1293.51 573.69L1111.84 366.501C1108.23 362.385 1108.43 356.175 1112.31 352.305V352.305C1116.18 348.434 1122.39 348.231 1126.5 351.839L1333.69 533.505Z" fill="#FFC600" fill-opacity="0.2"/>
</g>
<g filter="url(#filter3_i_109_2)">
<path d="M654.204 442.407C619.044 458.574 582.747 422.276 598.914 387.117L634.829 309.009C683.963 202.154 683.963 79.1659 634.829 -27.6896L598.913 -105.797C582.746 -140.956 619.044 -177.254 654.204 -161.087L732.311 -125.172C839.166 -76.0376 962.154 -76.0376 1069.01 -125.172L1147.12 -161.087C1182.28 -177.254 1218.57 -140.956 1202.41 -105.797L1166.49 -27.6895C1117.36 79.1659 1117.36 202.154 1166.49 309.01L1202.41 387.117C1218.57 422.276 1182.28 458.574 1147.12 442.407L1069.01 406.492C962.154 357.358 839.166 357.358 732.311 406.492L654.204 442.407Z" fill="url(#paint3_linear_109_2)"/>
<path d="M654.204 442.407C619.044 458.574 582.747 422.276 598.914 387.117L634.829 309.009C683.963 202.154 683.963 79.1659 634.829 -27.6896L598.913 -105.797C582.746 -140.956 619.044 -177.254 654.204 -161.087L732.311 -125.172C839.166 -76.0376 962.154 -76.0376 1069.01 -125.172L1147.12 -161.087C1182.28 -177.254 1218.57 -140.956 1202.41 -105.797L1166.49 -27.6895C1117.36 79.1659 1117.36 202.154 1166.49 309.01L1202.41 387.117C1218.57 422.276 1182.28 458.574 1147.12 442.407L1069.01 406.492C962.154 357.358 839.166 357.358 732.311 406.492L654.204 442.407Z" fill="#FFC600" fill-opacity="0.2"/>
</g>
<g filter="url(#filter4_i_109_2)">
<rect x="574.408" y="231.999" width="187.591" height="187.591" rx="41.6868" transform="rotate(180 574.408 231.999)" fill="url(#paint4_linear_109_2)"/>
<rect x="574.408" y="231.999" width="187.591" height="187.591" rx="41.6868" transform="rotate(180 574.408 231.999)" fill="#FFC600" fill-opacity="0.2"/>
</g>
<line x1="899.192" y1="777.335" x2="895.181" y2="-495.993" stroke="url(#paint5_linear_109_2)" stroke-opacity="0.4" stroke-width="6.9478"/>
<line x1="1537.33" y1="144.134" x2="263.993" y2="144.134" stroke="url(#paint6_linear_109_2)" stroke-opacity="0.4" stroke-width="6.9478"/>
<line x1="1353.31" y1="-307.075" x2="452.925" y2="593.308" stroke="url(#paint7_linear_109_2)" stroke-opacity="0.4" stroke-width="6.9478"/>
<line x1="445.556" y1="-304.619" x2="1345.94" y2="595.764" stroke="url(#paint8_linear_109_2)" stroke-opacity="0.4" stroke-width="6.9478"/>
<g filter="url(#filter5_i_109_2)">
<circle cx="900.66" cy="140.66" r="145.904" transform="rotate(-135 900.66 140.66)" fill="url(#paint9_linear_109_2)"/>
<circle cx="900.66" cy="140.66" r="145.904" transform="rotate(-135 900.66 140.66)" fill="#FFC600" fill-opacity="0.2"/>
</g>
<g filter="url(#filter6_i_109_2)">
<circle cx="1021.02" cy="566.849" r="70.3467" transform="rotate(-135 1021.02 566.849)" fill="url(#paint10_linear_109_2)"/>
<circle cx="1021.02" cy="566.849" r="70.3467" transform="rotate(-135 1021.02 566.849)" fill="#FFC600" fill-opacity="0.2"/>
</g>
</g>
<defs>
<filter id="filter0_i_109_2" x="365.68" y="-394.32" width="1069.96" height="1128.75" filterUnits="userSpaceOnUse" color-interpolation-filters="sRGB">
<feFlood flood-opacity="0" result="BackgroundImageFix"/>
<feBlend mode="normal" in="SourceGraphic" in2="BackgroundImageFix" result="shape"/>
<feColorMatrix in="SourceAlpha" type="matrix" values="0 0 0 0 0 0 0 0 0 0 0 0 0 0 0 0 0 0 127 0" result="hardAlpha"/>
<feOffset dy="58.7914"/>
<feGaussianBlur stdDeviation="73.1925"/>
<feComposite in2="hardAlpha" operator="arithmetic" k2="-1" k3="1"/>
<feColorMatrix type="matrix" values="0 0 0 0 1 0 0 0 0 1 0 0 0 0 1 0 0 0 0.8 0"/>
<feBlend mode="lighten" in2="shape" result="effect1_innerShadow_109_2"/>
</filter>
<filter id="filter1_i_109_2" x="457.927" y="349.262" width="234.131" height="248.245" filterUnits="userSpaceOnUse" color-interpolation-filters="sRGB">
<feFlood flood-opacity="0" result="BackgroundImageFix"/>
<feBlend mode="normal" in="SourceGraphic" in2="BackgroundImageFix" result="shape"/>
<feColorMatrix in="SourceAlpha" type="matrix" values="0 0 0 0 0 0 0 0 0 0 0 0 0 0 0 0 0 0 127 0" result="hardAlpha"/>
<feOffset dy="14.1136"/>
<feGaussianBlur stdDeviation="11.4664"/>
<feComposite in2="hardAlpha" operator="arithmetic" k2="-1" k3="1"/>
<feColorMatrix type="matrix" values="0 0 0 0 1 0 0 0 0 1 0 0 0 0 1 0 0 0 0.8 0"/>
<feBlend mode="lighten" in2="shape" result="effect1_innerShadow_109_2"/>
</filter>
<filter id="filter2_i_109_2" x="1109.26" y="349.262" width="234.131" height="248.245" filterUnits="userSpaceOnUse" color-interpolation-filters="sRGB">
<feFlood flood-opacity="0" result="BackgroundImageFix"/>
<feBlend mode="normal" in="SourceGraphic" in2="BackgroundImageFix" result="shape"/>
<feColorMatrix in="SourceAlpha" type="matrix" values="0 0 0 0 0 0 0 0 0 0 0 0 0 0 0 0 0 0 127 0" result="hardAlpha"/>
<feOffset dy="14.1136"/>
<feGaussianBlur stdDeviation="11.4664"/>
<feComposite in2="hardAlpha" operator="arithmetic" k2="-1" k3="1"/>
<feColorMatrix type="matrix" values="0 0 0 0 1 0 0 0 0 1 0 0 0 0 1 0 0 0 0.8 0"/>
<feBlend mode="lighten" in2="shape" result="effect1_innerShadow_109_2"/>
</filter>
<filter id="filter3_i_109_2" x="594.953" y="-165.047" width="611.414" height="651.725" filterUnits="userSpaceOnUse" color-interpolation-filters="sRGB">
<feFlood flood-opacity="0" result="BackgroundImageFix"/>
<feBlend mode="normal" in="SourceGraphic" in2="BackgroundImageFix" result="shape"/>
<feColorMatrix in="SourceAlpha" type="matrix" values="0 0 0 0 0 0 0 0 0 0 0 0 0 0 0 0 0 0 127 0" result="hardAlpha"/>
<feOffset dy="40.3112"/>
<feGaussianBlur stdDeviation="32.7504"/>
<feComposite in2="hardAlpha" operator="arithmetic" k2="-1" k3="1"/>
<feColorMatrix type="matrix" values="0 0 0 0 1 0 0 0 0 1 0 0 0 0 1 0 0 0 0.8 0"/>
<feBlend mode="lighten" in2="shape" result="effect1_innerShadow_109_2"/>
</filter>
<filter id="filter4_i_109_2" x="386.817" y="44.4084" width="187.591" height="227.902" filterUnits="userSpaceOnUse" color-interpolation-filters="sRGB">
<feFlood flood-opacity="0" result="BackgroundImageFix"/>
<feBlend mode="normal" in="SourceGraphic" in2="BackgroundImageFix" result="shape"/>
<feColorMatrix in="SourceAlpha" type="matrix" values="0 0 0 0 0 0 0 0 0 0 0 0 0 0 0 0 0 0 127 0" result="hardAlpha"/>
<feOffset dy="40.3112"/>
<feGaussianBlur stdDeviation="32.7504"/>
<feComposite in2="hardAlpha" operator="arithmetic" k2="-1" k3="1"/>
<feColorMatrix type="matrix" values="0 0 0 0 1 0 0 0 0 1 0 0 0 0 1 0 0 0 0.8 0"/>
<feBlend mode="lighten" in2="shape" result="effect1_innerShadow_109_2"/>
</filter>
<filter id="filter5_i_109_2" x="754.757" y="-5.24341" width="291.808" height="332.119" filterUnits="userSpaceOnUse" color-interpolation-filters="sRGB">
<feFlood flood-opacity="0" result="BackgroundImageFix"/>
<feBlend mode="normal" in="SourceGraphic" in2="BackgroundImageFix" result="shape"/>
<feColorMatrix in="SourceAlpha" type="matrix" values="0 0 0 0 0 0 0 0 0 0 0 0 0 0 0 0 0 0 127 0" result="hardAlpha"/>
<feOffset dy="40.3112"/>
<feGaussianBlur stdDeviation="32.7504"/>
<feComposite in2="hardAlpha" operator="arithmetic" k2="-1" k3="1"/>
<feColorMatrix type="matrix" values="0 0 0 0 1 0 0 0 0 1 0 0 0 0 1 0 0 0 0.8 0"/>
<feBlend mode="lighten" in2="shape" result="effect1_innerShadow_109_2"/>
</filter>
<filter id="filter6_i_109_2" x="950.677" y="496.502" width="140.693" height="181.005" filterUnits="userSpaceOnUse" color-interpolation-filters="sRGB">
<feFlood flood-opacity="0" result="BackgroundImageFix"/>
<feBlend mode="normal" in="SourceGraphic" in2="BackgroundImageFix" result="shape"/>
<feColorMatrix in="SourceAlpha" type="matrix" values="0 0 0 0 0 0 0 0 0 0 0 0 0 0 0 0 0 0 127 0" result="hardAlpha"/>
<feOffset dy="40.3112"/>
<feGaussianBlur stdDeviation="32.7504"/>
<feComposite in2="hardAlpha" operator="arithmetic" k2="-1" k3="1"/>
<feColorMatrix type="matrix" values="0 0 0 0 1 0 0 0 0 1 0 0 0 0 1 0 0 0 0.8 0"/>
<feBlend mode="lighten" in2="shape" result="effect1_innerShadow_109_2"/>
</filter>
<linearGradient id="paint0_linear_109_2" x1="1816.93" y1="1041.04" x2="2109.48" y2="2243.18" gradientUnits="userSpaceOnUse">
<stop/>
<stop offset="1" stop-opacity="0"/>
</linearGradient>
<linearGradient id="paint1_linear_109_2" x1="377.15" y1="679.537" x2="324.973" y2="585.46" gradientUnits="userSpaceOnUse">
<stop stop-color="#949494"/>
<stop offset="0.635171" stop-color="#BB930A"/>
<stop offset="1" stop-color="#321F02"/>
</linearGradient>
<linearGradient id="paint2_linear_109_2" x1="1439.54" y1="664.171" x2="1345.46" y2="716.347" gradientUnits="userSpaceOnUse">
<stop stop-color="#949494"/>
<stop offset="0.635171" stop-color="#BB930A"/>
<stop offset="1" stop-color="#321F02"/>
</linearGradient>
<linearGradient id="paint3_linear_109_2" x1="373.315" y1="917.278" x2="567.348" y2="-78.4939" gradientUnits="userSpaceOnUse">
<stop stop-color="#949494"/>
<stop offset="0.635171" stop-color="#BB930A"/>
<stop offset="1" stop-color="#321F02"/>
</linearGradient>
<linearGradient id="paint4_linear_109_2" x1="634.689" y1="150.477" x2="742.482" y2="310.446" gradientUnits="userSpaceOnUse">
<stop stop-color="#949494"/>
<stop offset="0.635171" stop-color="#BB930A"/>
<stop offset="1" stop-color="#321F02"/>
</linearGradient>
<linearGradient id="paint5_linear_109_2" x1="902.263" y1="736.28" x2="903.979" y2="736.271" gradientUnits="userSpaceOnUse">
<stop stop-color="#949494"/>
<stop offset="0.635171" stop-color="#514108"/>
<stop offset="1" stop-color="#322202"/>
</linearGradient>
<linearGradient id="paint6_linear_109_2" x1="1496.28" y1="140.933" x2="1496.28" y2="139.217" gradientUnits="userSpaceOnUse">
<stop stop-color="#949494"/>
<stop offset="0.635171" stop-color="#514108"/>
<stop offset="1" stop-color="#322202"/>
</linearGradient>
<linearGradient id="paint7_linear_109_2" x1="1322.02" y1="-280.315" x2="1320.81" y2="-281.526" gradientUnits="userSpaceOnUse">
<stop stop-color="#949494"/>
<stop offset="0.635171" stop-color="#514108"/>
<stop offset="1" stop-color="#322202"/>
</linearGradient>
<linearGradient id="paint8_linear_109_2" x1="472.316" y1="-273.333" x2="471.105" y2="-272.116" gradientUnits="userSpaceOnUse">
<stop stop-color="#949494"/>
<stop offset="0.635171" stop-color="#514108"/>
<stop offset="1" stop-color="#322202"/>
</linearGradient>
<linearGradient id="paint9_linear_109_2" x1="848.526" y1="-132.056" x2="1016.21" y2="116.785" gradientUnits="userSpaceOnUse">
<stop stop-color="#949494"/>
<stop offset="0.635171" stop-color="#BB930A"/>
<stop offset="1" stop-color="#321F02"/>
</linearGradient>
<linearGradient id="paint10_linear_109_2" x1="995.888" y1="435.36" x2="1076.73" y2="555.337" gradientUnits="userSpaceOnUse">
<stop stop-color="#949494"/>
<stop offset="0.635171" stop-color="#BB930A"/>
<stop offset="1" stop-color="#321F02"/>
</linearGradient>
</defs>
</svg>
