<svg width="1214" height="1174" fill="none" xmlns="http://www.w3.org/2000/svg"><circle cx="693" cy="608" r="280" stroke="#FFC600" stroke-width="140"/><g clip-path="url(#prefix__clip0_12_136)" fill="#fff"><path d="M557.355 600h-5.485v-24.425h-8.962v-4.672h23.41v4.672h-8.963V600zm24.971-29.605c4.35 0 7.795 1.354 10.334 4.062 2.539 2.692 3.809 6.357 3.809 10.995 0 4.621-1.27 8.285-3.809 10.994-2.539 2.691-5.984 4.037-10.334 4.037-4.367 0-7.82-1.346-10.359-4.037-2.539-2.692-3.809-6.356-3.809-10.994s1.27-8.303 3.809-10.995c2.539-2.708 5.992-4.062 10.359-4.062zm0 4.748c-2.624 0-4.706.931-6.246 2.793-1.54 1.845-2.311 4.35-2.311 7.516 0 3.165.771 5.679 2.311 7.541 1.54 1.845 3.622 2.767 6.246 2.767 2.607 0 4.672-.922 6.195-2.767 1.541-1.862 2.311-4.376 2.311-7.541 0-3.166-.77-5.671-2.311-7.516-1.523-1.862-3.588-2.793-6.195-2.793zM612.731 600h-5.485v-24.425h-8.962v-4.672h23.41v4.672h-8.963V600zm28.856 0l-2.489-7.312h-10.841L625.794 600h-5.688l10.512-29.097h6.271L647.401 600h-5.814zm-7.998-23.765l-4.063 12.187h8.303l-4.088-12.187h-.152zm36.955 19.093V600h-18.89v-29.097h5.509v24.425h13.381zm14.802-3.554h5.357c.153 1.269.83 2.293 2.032 3.072 1.218.762 2.733 1.143 4.545 1.143 1.76 0 3.19-.364 4.291-1.092 1.117-.745 1.675-1.684 1.675-2.819 0-1.015-.406-1.828-1.218-2.437-.813-.626-2.15-1.151-4.012-1.574l-3.834-.864c-5.4-1.167-8.1-3.842-8.1-8.023 0-2.607 1.033-4.723 3.098-6.348 2.082-1.625 4.756-2.437 8.023-2.437 3.301 0 5.959.795 7.973 2.387 2.014 1.591 3.055 3.69 3.123 6.296h-5.256c-.118-1.303-.711-2.327-1.777-3.072-1.05-.761-2.412-1.142-4.088-1.142-1.642 0-2.979.364-4.012 1.091-1.015.711-1.523 1.634-1.523 2.768 0 .931.398 1.693 1.193 2.285.796.576 2.099 1.067 3.91 1.473l3.453.762c3.013.66 5.197 1.641 6.551 2.945 1.371 1.286 2.057 3.021 2.057 5.205 0 2.793-1.067 5.01-3.199 6.652-2.116 1.625-4.985 2.438-8.608 2.438-3.47 0-6.254-.779-8.353-2.336-2.082-1.557-3.183-3.682-3.301-6.373zm34.061-20.871v18.306c0 1.964.592 3.53 1.777 4.698 1.185 1.168 2.844 1.752 4.977 1.752 2.133 0 3.792-.584 4.976-1.752 1.202-1.168 1.803-2.734 1.803-4.698v-18.306h5.51v18.814c0 3.216-1.117 5.815-3.352 7.795-2.217 1.981-5.196 2.971-8.937 2.971-3.741 0-6.72-.982-8.938-2.946-2.217-1.98-3.326-4.587-3.326-7.82v-18.814h5.51zm25.377 0h12.061c2.996 0 5.425.905 7.287 2.717 1.862 1.811 2.793 4.189 2.793 7.134 0 2.929-.956 5.298-2.869 7.11-1.913 1.811-4.393 2.716-7.44 2.716h-6.322V600h-5.51v-29.097zm5.51 4.494v10.74h5.078c1.896 0 3.36-.465 4.393-1.396 1.049-.931 1.574-2.26 1.574-3.987 0-1.709-.525-3.03-1.574-3.961-1.033-.931-2.488-1.396-4.367-1.396h-5.104zm21.569-4.494h12.061c2.996 0 5.425.905 7.287 2.717 1.862 1.811 2.793 4.189 2.793 7.134 0 2.929-.957 5.298-2.87 7.11-1.912 1.811-4.392 2.716-7.439 2.716h-6.322V600h-5.51v-29.097zm5.51 4.494v10.74h5.078c1.896 0 3.36-.465 4.392-1.396 1.05-.931 1.575-2.26 1.575-3.987 0-1.709-.525-3.03-1.575-3.961-1.032-.931-2.488-1.396-4.367-1.396h-5.103zm40.459 19.931V600h-18.89v-29.097h5.509v24.425h13.381zM832.114 600h-5.51v-11.222l-10.385-17.875h6.043l7.084 12.543h.127l7.084-12.543h5.992l-10.435 17.875V600zM515.715 655v-17.265h-.137l-5.937 3.73v-6.406l6.093-3.887h8.047V655h-8.066zm19.14 6.719h-5.703l1.036-12.051h7.226l-2.559 12.051zm25.469-9.394c-2.005 2.265-4.72 3.398-8.144 3.398-3.425 0-6.146-1.126-8.164-3.379-2.006-2.266-3.008-5.371-3.008-9.316 0-3.972 1.002-7.064 3.008-9.278 2.018-2.213 4.739-3.32 8.164-3.32 3.424 0 6.139 1.107 8.144 3.32 2.005 2.201 3.008 5.287 3.008 9.258 0 3.945-1.003 7.051-3.008 9.317zm-10.293-4.258c.56 1.133 1.276 1.699 2.149 1.699.872 0 1.582-.56 2.129-1.68.546-1.133.82-2.819.82-5.058 0-2.253-.274-3.92-.82-5-.534-1.094-1.244-1.641-2.129-1.641-.886 0-1.602.547-2.149 1.641-.547 1.08-.82 2.747-.82 5 0 2.226.273 3.906.82 5.039zm35.918 4.258c-2.005 2.265-4.72 3.398-8.144 3.398-3.425 0-6.146-1.126-8.164-3.379-2.006-2.266-3.008-5.371-3.008-9.316 0-3.972 1.002-7.064 3.008-9.278 2.018-2.213 4.739-3.32 8.164-3.32 3.424 0 6.139 1.107 8.144 3.32 2.005 2.201 3.008 5.287 3.008 9.258 0 3.945-1.003 7.051-3.008 9.317zm-10.293-4.258c.56 1.133 1.276 1.699 2.149 1.699.872 0 1.582-.56 2.129-1.68.546-1.133.82-2.819.82-5.058 0-2.253-.274-3.92-.82-5-.534-1.094-1.244-1.641-2.129-1.641-.886 0-1.602.547-2.149 1.641-.547 1.08-.82 2.747-.82 5 0 2.226.273 3.906.82 5.039zm35.918 4.258c-2.005 2.265-4.72 3.398-8.144 3.398-3.425 0-6.146-1.126-8.164-3.379-2.006-2.266-3.008-5.371-3.008-9.316 0-3.972 1.002-7.064 3.008-9.278 2.018-2.213 4.739-3.32 8.164-3.32 3.424 0 6.139 1.107 8.144 3.32 2.005 2.201 3.008 5.287 3.008 9.258 0 3.945-1.003 7.051-3.008 9.317zm-10.293-4.258c.56 1.133 1.276 1.699 2.149 1.699.872 0 1.582-.56 2.129-1.68.546-1.133.82-2.819.82-5.058 0-2.253-.274-3.92-.82-5-.534-1.094-1.244-1.641-2.129-1.641-.886 0-1.602.547-2.149 1.641-.547 1.08-.82 2.747-.82 5 0 2.226.273 3.906.82 5.039zm22.52 13.652h-5.703l1.035-12.051h7.226l-2.558 12.051zm25.469-9.394c-2.006 2.265-4.721 3.398-8.145 3.398-3.424 0-6.146-1.126-8.164-3.379-2.005-2.266-3.008-5.371-3.008-9.316 0-3.972 1.003-7.064 3.008-9.278 2.018-2.213 4.74-3.32 8.164-3.32 3.424 0 6.139 1.107 8.145 3.32 2.005 2.201 3.007 5.287 3.007 9.258 0 3.945-1.002 7.051-3.007 9.317zm-10.293-4.258c.559 1.133 1.276 1.699 2.148 1.699.872 0 1.582-.56 2.129-1.68.547-1.133.82-2.819.82-5.058 0-2.253-.273-3.92-.82-5-.534-1.094-1.244-1.641-2.129-1.641s-1.602.547-2.148 1.641c-.547 1.08-.821 2.747-.821 5 0 2.226.274 3.906.821 5.039zm35.918 4.258c-2.006 2.265-4.721 3.398-8.145 3.398-3.424 0-6.146-1.126-8.164-3.379-2.005-2.266-3.008-5.371-3.008-9.316 0-3.972 1.003-7.064 3.008-9.278 2.018-2.213 4.74-3.32 8.164-3.32 3.424 0 6.139 1.107 8.145 3.32 2.005 2.201 3.007 5.287 3.007 9.258 0 3.945-1.002 7.051-3.007 9.317zm-10.293-4.258c.559 1.133 1.276 1.699 2.148 1.699.872 0 1.582-.56 2.129-1.68.547-1.133.82-2.819.82-5.058 0-2.253-.273-3.92-.82-5-.534-1.094-1.244-1.641-2.129-1.641s-1.602.547-2.148 1.641c-.547 1.08-.821 2.747-.821 5 0 2.226.274 3.906.821 5.039zm35.918 4.258c-2.006 2.265-4.721 3.398-8.145 3.398-3.424 0-6.146-1.126-8.164-3.379-2.005-2.266-3.008-5.371-3.008-9.316 0-3.972 1.003-7.064 3.008-9.278 2.018-2.213 4.74-3.32 8.164-3.32 3.424 0 6.139 1.107 8.145 3.32 2.005 2.201 3.007 5.287 3.007 9.258 0 3.945-1.002 7.051-3.007 9.317zm-10.293-4.258c.559 1.133 1.276 1.699 2.148 1.699.872 0 1.582-.56 2.129-1.68.547-1.133.82-2.819.82-5.058 0-2.253-.273-3.92-.82-5-.534-1.094-1.244-1.641-2.129-1.641s-1.602.547-2.148 1.641c-.547 1.08-.821 2.747-.821 5 0 2.226.274 3.906.821 5.039zm22.519 13.652h-5.703l1.035-12.051h7.227l-2.559 12.051zm25.469-9.394c-2.005 2.265-4.72 3.398-8.145 3.398-3.424 0-6.146-1.126-8.164-3.379-2.005-2.266-3.008-5.371-3.008-9.316 0-3.972 1.003-7.064 3.008-9.278 2.018-2.213 4.74-3.32 8.164-3.32 3.425 0 6.14 1.107 8.145 3.32 2.005 2.201 3.008 5.287 3.008 9.258 0 3.945-1.003 7.051-3.008 9.317zm-10.293-4.258c.56 1.133 1.276 1.699 2.148 1.699.873 0 1.582-.56 2.129-1.68.547-1.133.821-2.819.821-5.058 0-2.253-.274-3.92-.821-5-.534-1.094-1.243-1.641-2.129-1.641-.885 0-1.601.547-2.148 1.641-.547 1.08-.82 2.747-.82 5 0 2.226.273 3.906.82 5.039zm35.918 4.258c-2.005 2.265-4.72 3.398-8.145 3.398-3.424 0-6.146-1.126-8.164-3.379-2.005-2.266-3.008-5.371-3.008-9.316 0-3.972 1.003-7.064 3.008-9.278 2.018-2.213 4.74-3.32 8.164-3.32 3.425 0 6.14 1.107 8.145 3.32 2.005 2.201 3.008 5.287 3.008 9.258 0 3.945-1.003 7.051-3.008 9.317zm-10.293-4.258c.56 1.133 1.276 1.699 2.148 1.699.873 0 1.582-.56 2.129-1.68.547-1.133.821-2.819.821-5.058 0-2.253-.274-3.92-.821-5-.534-1.094-1.243-1.641-2.129-1.641-.885 0-1.601.547-2.148 1.641-.547 1.08-.82 2.747-.82 5 0 2.226.273 3.906.82 5.039zm35.918 4.258c-2.005 2.265-4.72 3.398-8.145 3.398-3.424 0-6.146-1.126-8.164-3.379-2.005-2.266-3.008-5.371-3.008-9.316 0-3.972 1.003-7.064 3.008-9.278 2.018-2.213 4.74-3.32 8.164-3.32 3.425 0 6.14 1.107 8.145 3.32 2.005 2.201 3.008 5.287 3.008 9.258 0 3.945-1.003 7.051-3.008 9.317zm-10.293-4.258c.56 1.133 1.276 1.699 2.148 1.699.873 0 1.582-.56 2.129-1.68.547-1.133.821-2.819.821-5.058 0-2.253-.274-3.92-.821-5-.534-1.094-1.243-1.641-2.129-1.641-.885 0-1.601.547-2.148 1.641-.547 1.08-.82 2.747-.82 5 0 2.226.273 3.906.82 5.039zm24.531-16.895h10.918c3.776 0 6.693 1.003 8.75 3.008 2.07 2.005 3.106 4.902 3.106 8.691 0 3.829-1.042 6.81-3.125 8.946-2.084 2.122-4.994 3.183-8.731 3.183h-10.918v-23.828zm8.047 6.153v11.523h1.68c3.242 0 4.863-1.992 4.863-5.977 0-1.783-.43-3.151-1.289-4.101-.846-.964-2.038-1.445-3.574-1.445h-1.68zm35.859 11.523V655h-17.734v-23.828h17.734v6.153h-9.687v3.086h9.062v5.488h-9.062v2.949h9.687zM868.352 655h-10.625l-7.129-23.828h9.316l3.262 16.582h.136l3.262-16.582h8.906L868.352 655z"/></g><g filter="url(#prefix__filter0_iii_12_136)"><path d="M1076.31 568.856c8.84 1.097 13.26 1.646 17 .209 3.16-1.212 6.14-3.692 7.9-6.573 2.09-3.414 2.34-7.6 2.84-15.973a399.95 399.95 0 00-56.76-230.336 400.008 400.008 0 00-462.32-175.067 400.003 400.003 0 00-195.093 134.965c-5.173 6.603-7.759 9.904-8.452 13.848-.586 3.327.005 7.16 1.564 10.157 1.849 3.552 5.525 6.07 12.877 11.105L595.9 448.199c7.221 4.946 10.832 7.419 14.002 8.067 3.31.676 5.199.554 8.395-.542 3.06-1.05 7.233-4.781 15.581-12.244a106.336 106.336 0 01108.54-20.174 106.347 106.347 0 0167.954 87.007c1.311 11.12 1.966 16.68 3.563 19.494 1.668 2.938 3.002 4.28 5.93 5.966 2.804 1.615 7.147 2.153 15.834 3.231l240.611 29.852z" fill="#2D436F"/></g><g filter="url(#prefix__filter1_iii_12_136)"><path d="M750.37 979.573c1.662 12.049 2.493 18.074 5.785 22.547 2.74 3.73 7.261 6.86 11.714 8.11 5.349 1.51 10.82.27 21.763-2.2a410.065 410.065 0 00179.263-91.137 409.994 409.994 0 00114.365-165.412c3.92-10.511 5.89-15.767 5.11-21.269-.64-4.581-3.14-9.482-6.46-12.697-4-3.863-9.86-5.495-21.57-8.759l-146.253-40.741c-11.681-3.253-17.522-4.88-22.089-4.22-4.579.663-7.387 1.919-10.933 4.89-3.537 2.964-6.767 9.516-13.227 22.619a188.072 188.072 0 01-44.95 58.474 188.06 188.06 0 01-63.978 36.695c-13.851 4.643-20.777 6.965-24.19 10.073-3.42 3.114-5.041 5.729-6.312 10.177-1.268 4.438-.439 10.444 1.218 22.455l20.744 150.395z" fill="#000"/></g><g filter="url(#prefix__filter2_iii_12_136)"><path d="M400.238 867.126c-9.383 7.743-14.075 11.614-16.157 16.763-1.734 4.288-2.026 9.77-.757 14.219 1.522 5.34 5.45 9.355 13.305 17.385A415.002 415.002 0 00600.62 1029.81c10.95 2.51 16.425 3.76 21.775 2.28 4.456-1.24 8.98-4.35 11.732-8.07 3.305-4.47 4.158-10.49 5.864-22.53l21.677-153c1.702-12.01 2.552-18.015 1.296-22.464-1.258-4.452-2.883-7.088-6.296-10.21-3.412-3.12-10.321-5.447-24.138-10.1a190.406 190.406 0 01-61.415-34.418c-11.182-9.356-16.773-14.035-21.215-15.316-4.445-1.281-7.542-1.292-11.995-.041-4.451 1.251-9.129 5.111-18.484 12.832l-119.183 98.353z" fill="#2B132B"/></g><g filter="url(#prefix__filter3_iii_12_136)"><path d="M340.361 440.423c-10.863-5.463-16.294-8.195-21.856-8.019-4.623.145-9.782 2.106-13.335 5.068-4.274 3.562-6.341 8.764-10.477 19.166a400.025 400.025 0 00-21.357 221.932c2.076 11 3.114 16.499 6.63 20.812 2.924 3.585 7.613 6.493 12.124 7.518 5.426 1.233 11.279-.413 22.984-3.705l140.94-39.633c11.662-3.279 17.494-4.919 21.047-7.84 3.573-2.937 5.304-5.43 6.806-9.805 1.494-4.35.885-11.66-.333-26.28a183.539 183.539 0 016.261-65.064c3.984-14.12 5.976-21.179 5.339-25.734-.641-4.581-1.865-7.359-4.812-10.924-2.931-3.545-8.342-6.266-19.165-11.71l-130.796-65.782z" fill="#114D07"/></g><path d="M721.7 59.559c-1.833 0-3.48-.38-4.941-1.14-1.447-.772-2.614-1.883-3.502-3.33-1.433-2.176-2.149-4.962-2.149-8.357 0-4.11.953-7.333 2.858-9.667 1.905-2.35 4.511-3.524 7.82-3.524 2.435 0 4.519.645 6.252 1.934 1.733 1.274 2.779 2.936 3.137 4.984h-5.285c-.244-.802-.745-1.447-1.504-1.934-.745-.5-1.619-.752-2.621-.752-1.777 0-3.166.788-4.168 2.364-.989 1.56-1.447 3.716-1.375 6.466h.085c.516-1.231 1.375-2.212 2.579-2.943 1.203-.745 2.606-1.117 4.211-1.117 2.42 0 4.425.78 6.015 2.342 1.59 1.547 2.385 3.509 2.385 5.887 0 2.563-.917 4.669-2.75 6.316-1.833 1.647-4.182 2.47-7.047 2.47zm-.043-4.233c1.289 0 2.385-.43 3.287-1.289.903-.86 1.354-1.898 1.354-3.115 0-1.26-.444-2.299-1.332-3.115-.874-.831-1.97-1.247-3.287-1.247-1.318 0-2.421.416-3.309 1.247-.888.816-1.332 1.84-1.332 3.072 0 1.246.444 2.299 1.332 3.158.888.86 1.984 1.29 3.287 1.29zm24.491 4.233c-3.208 0-5.736-1.16-7.584-3.48-1.833-2.336-2.75-5.522-2.75-9.561 0-4.025.924-7.198 2.772-9.518 1.848-2.32 4.368-3.48 7.562-3.48s5.708 1.16 7.541 3.48c1.834 2.306 2.75 5.471 2.75 9.496 0 4.04-.916 7.226-2.75 9.56-1.833 2.335-4.347 3.503-7.541 3.503zm0-4.276c1.519 0 2.707-.759 3.567-2.277.859-1.533 1.289-3.696 1.289-6.488 0-2.78-.437-4.92-1.311-6.424-.859-1.519-2.041-2.278-3.545-2.278-1.518 0-2.714.76-3.587 2.278-.86 1.518-1.29 3.66-1.29 6.424 0 2.778.43 4.934 1.29 6.466.859 1.533 2.055 2.3 3.587 2.3zm18.283-12.418c.429.616.995.924 1.697.924.702 0 1.268-.308 1.697-.924.444-.616.666-1.446.666-2.492 0-1.06-.222-1.898-.666-2.514-.429-.616-.995-.924-1.697-.924-.702 0-1.268.308-1.697.924-.43.616-.645 1.454-.645 2.514 0 1.046.215 1.876.645 2.492zm1.697 4.168c-1.848 0-3.359-.623-4.533-1.869-1.175-1.246-1.762-2.843-1.762-4.791 0-1.962.587-3.566 1.762-4.813 1.174-1.245 2.685-1.869 4.533-1.869 1.862 0 3.38.623 4.555 1.87 1.174 1.246 1.761 2.85 1.761 4.812 0 1.962-.587 3.567-1.761 4.813-1.175 1.231-2.693 1.847-4.555 1.847zM768.276 59H763.7l9.26-13.535 7.756-11.365h4.576l-8.637 12.654L768.276 59zm14.567-2.815c.702 0 1.267-.307 1.697-.923.444-.63.666-1.468.666-2.514 0-1.06-.222-1.898-.666-2.514-.43-.616-.995-.924-1.697-.924-.688 0-1.253.308-1.697.924-.43.616-.645 1.454-.645 2.514 0 1.046.215 1.884.645 2.514.444.616 1.009.923 1.697.923zm0 3.223c-1.848 0-3.359-.623-4.533-1.869-1.175-1.246-1.762-2.843-1.762-4.791 0-1.962.587-3.56 1.762-4.791 1.174-1.246 2.685-1.87 4.533-1.87 1.862 0 3.38.624 4.555 1.87 1.174 1.232 1.761 2.829 1.761 4.791 0 1.962-.587 3.567-1.761 4.813-1.175 1.231-2.693 1.847-4.555 1.847z" fill="#fff"/><path d="M672.547 100h-2.719V82.344h11.203v2.422h-8.484v5.515h7.765v2.36h-7.765V100zm21.672 0l-1.672-4.734h-6.906L683.969 100h-2.828l6.515-17.656h2.906L697.078 100h-2.859zm-5.172-14.688l-2.703 7.72h5.484l-2.703-7.72h-.078zM702.109 100h-2.718V82.344h2.718V100zm6.375-15.313v6.297h4.078c1.094 0 1.938-.276 2.532-.828.604-.552.906-1.328.906-2.328 0-.969-.312-1.734-.938-2.297-.624-.562-1.484-.844-2.578-.844h-4zm0 8.547V100h-2.718V82.344h7.046c1.834 0 3.287.49 4.36 1.469 1.083.979 1.625 2.291 1.625 3.937 0 1.198-.313 2.25-.938 3.156-.625.896-1.484 1.526-2.578 1.89l4.063 7.204h-3.156l-3.688-6.766h-4.016zm31.063 4.344V100h-11.156V82.344h2.718v15.234h8.438zM754 100l-1.672-4.734h-6.906L743.75 100h-2.828l6.516-17.656h2.906L756.859 100H754zm-5.172-14.688l-2.703 7.72h5.484l-2.703-7.72h-.078zm13.063-2.968v11.203c0 1.27.401 2.297 1.203 3.078.812.781 1.927 1.172 3.344 1.172 1.427 0 2.541-.39 3.343-1.172.813-.781 1.219-1.807 1.219-3.078V82.344h2.719V93.78c0 1.938-.657 3.51-1.969 4.719-1.312 1.198-3.083 1.797-5.312 1.797-2.219 0-3.985-.6-5.297-1.797-1.313-1.208-1.969-2.781-1.969-4.719V82.344h2.719zM780.047 100h-2.656V82.344h2.484l9.406 12.89h.11v-12.89h2.656V100h-2.485l-9.406-12.875h-.109V100zm23.234.297c-2.531 0-4.536-.818-6.015-2.453-1.48-1.636-2.219-3.86-2.219-6.672 0-2.802.745-5.021 2.234-6.656 1.49-1.646 3.49-2.47 6-2.47 2.031 0 3.745.569 5.141 1.704 1.406 1.135 2.229 2.63 2.469 4.484h-2.703c-.25-1.125-.823-2.026-1.719-2.703-.896-.687-1.959-1.031-3.188-1.031-1.656 0-2.979.604-3.969 1.813-.989 1.208-1.484 2.822-1.484 4.843 0 2.052.49 3.682 1.469 4.89.989 1.199 2.323 1.798 4 1.798 1.26 0 2.318-.297 3.172-.89.864-.605 1.437-1.438 1.719-2.5h2.718c-.354 1.843-1.198 3.28-2.531 4.312-1.333 1.02-3.031 1.531-5.094 1.531zm25.25-.297h-2.719v-7.781h-9.328V100h-2.718V82.344h2.718v7.437h9.328v-7.437h2.719V100z" fill="#EBEBEB"/><path d="M1070.85 899v-4.383h-12.68v-4.555c2.05-3.838 5.45-9.159 10.21-15.962h7.56v16.242h3.31v4.275h-3.31V899h-5.09zm-7.97-8.637v.151h8.08v-12.633h-.09c-1.96 2.75-3.54 5.049-4.73 6.896a69.42 69.42 0 00-3.26 5.586zm26.94-2.191v-3.846h3.07c1.22 0 2.2-.308 2.94-.924.75-.63 1.12-1.453 1.12-2.47 0-1.003-.36-1.798-1.07-2.385-.72-.587-1.72-.881-3.01-.881-1.22 0-2.21.322-2.99.967-.77.644-1.19 1.504-1.26 2.578h-4.92c.1-2.32 1-4.175 2.7-5.565 1.71-1.403 3.94-2.105 6.71-2.105 2.65 0 4.79.616 6.44 1.848 1.65 1.217 2.47 2.821 2.47 4.812 0 1.518-.49 2.8-1.46 3.846-.96 1.031-2.23 1.683-3.8 1.955v.129c1.92.157 3.44.766 4.55 1.826 1.13 1.06 1.7 2.442 1.7 4.147 0 2.234-.93 4.039-2.79 5.414-1.87 1.36-4.28 2.041-7.24 2.041-2.87 0-5.19-.702-6.96-2.106-1.77-1.418-2.7-3.287-2.82-5.607h5.11c.09 1.031.56 1.862 1.4 2.492.85.616 1.96.924 3.33.924 1.33 0 2.41-.323 3.25-.967.84-.659 1.26-1.504 1.26-2.535 0-1.117-.41-1.991-1.24-2.621-.82-.645-1.94-.967-3.38-.967h-3.11zm21.33-5.307c.43.616 1 .924 1.7.924s1.27-.308 1.7-.924c.44-.616.66-1.446.66-2.492 0-1.06-.22-1.898-.66-2.514-.43-.616-1-.923-1.7-.923s-1.27.307-1.7.923c-.43.616-.64 1.454-.64 2.514 0 1.046.21 1.876.64 2.492zm1.7 4.168c-1.85 0-3.36-.623-4.53-1.869-1.18-1.246-1.77-2.843-1.77-4.791 0-1.962.59-3.566 1.77-4.812 1.17-1.247 2.68-1.87 4.53-1.87 1.86 0 3.38.623 4.55 1.87 1.18 1.246 1.77 2.85 1.77 4.812 0 1.962-.59 3.566-1.77 4.813-1.17 1.231-2.69 1.847-4.55 1.847zM1115 899h-4.58l9.26-13.535 7.76-11.365h4.57l-8.63 12.654L1115 899zm14.56-2.814c.71 0 1.27-.308 1.7-.924.44-.63.67-1.468.67-2.514 0-1.06-.23-1.898-.67-2.514-.43-.616-.99-.923-1.7-.923-.68 0-1.25.307-1.69.923-.43.616-.65 1.454-.65 2.514 0 1.046.22 1.884.65 2.514.44.616 1.01.924 1.69.924zm0 3.222c-1.84 0-3.36-.623-4.53-1.869-1.17-1.246-1.76-2.843-1.76-4.791 0-1.962.59-3.559 1.76-4.791 1.17-1.246 2.69-1.869 4.53-1.869 1.87 0 3.38.623 4.56 1.869 1.17 1.232 1.76 2.829 1.76 4.791 0 1.962-.59 3.566-1.76 4.813-1.18 1.231-2.69 1.847-4.56 1.847z" fill="#fff"/><path d="M1011.98 937.578V940h-11.15v-17.656h2.72v15.234h8.43zm5.44 2.422h-2.72v-17.656h2.72V940zm19.05 1.859h-2.88l-1.56-2.078c-.95.344-2.01.516-3.19.516-2.59 0-4.64-.813-6.15-2.438-1.51-1.635-2.27-3.864-2.27-6.687 0-2.802.76-5.021 2.27-6.656 1.51-1.646 3.56-2.469 6.15-2.469 2.59 0 4.63.823 6.14 2.469 1.51 1.635 2.27 3.854 2.27 6.656 0 1.635-.27 3.088-.81 4.359-.54 1.261-1.32 2.276-2.33 3.047l2.36 3.281zm-7.63-4.015a5.8 5.8 0 001.71-.235l-2.16-2.968h2.8l1.31 1.625c1.31-1.146 1.97-2.844 1.97-5.094 0-2.042-.51-3.662-1.52-4.86-1.01-1.208-2.38-1.812-4.11-1.812-1.73 0-3.1.604-4.12 1.812-1.01 1.198-1.52 2.818-1.52 4.86 0 2.042.51 3.667 1.52 4.875 1.02 1.198 2.39 1.797 4.12 1.797zm14.14-15.5v11.203c0 1.271.41 2.297 1.21 3.078.81.781 1.92 1.172 3.34 1.172 1.43 0 2.54-.391 3.35-1.172.81-.781 1.21-1.807 1.21-3.078v-11.203h2.72v11.437c0 1.938-.65 3.511-1.97 4.719-1.31 1.198-3.08 1.797-5.31 1.797-2.22 0-3.98-.599-5.3-1.797-1.31-1.208-1.96-2.781-1.96-4.719v-11.437h2.71zM1061.2 940h-2.72v-17.656h2.72V940zm3.66-17.656h6.41c2.68 0 4.78.771 6.28 2.312 1.5 1.542 2.25 3.703 2.25 6.485 0 2.791-.75 4.968-2.25 6.531-1.5 1.552-3.6 2.328-6.28 2.328h-6.41v-17.656zm2.72 2.422v12.812h3.45c1.93 0 3.41-.552 4.44-1.656 1.03-1.104 1.55-2.693 1.55-4.766 0-2.052-.52-3.63-1.55-4.734s-2.51-1.656-4.44-1.656h-3.45zM1085.52 940h-2.72v-17.656h2.72V940zm10.95 0h-2.72v-15.234h-5.64v-2.422h14v2.422h-5.64V940zm15.95 0h-2.72v-7.188l-6.34-10.468h3.03l4.64 7.765h.08l4.66-7.765h3.01l-6.36 10.468V940zm15.22-17.656h7.02c1.75 0 3.17.541 4.26 1.625 1.11 1.073 1.66 2.474 1.66 4.203s-.56 3.135-1.69 4.219c-1.11 1.073-2.55 1.609-4.31 1.609h-4.22v6h-2.72v-17.656zm2.72 2.359v6.953h3.58c1.23 0 2.17-.302 2.84-.906.68-.615 1.02-1.474 1.02-2.578 0-1.104-.34-1.958-1.02-2.563-.67-.604-1.61-.906-2.83-.906h-3.59zm20.76-2.656c2.59 0 4.64.823 6.15 2.469 1.51 1.635 2.26 3.854 2.26 6.656 0 2.812-.75 5.036-2.26 6.672-1.51 1.635-3.56 2.453-6.15 2.453-2.59 0-4.64-.818-6.15-2.453-1.51-1.636-2.27-3.86-2.27-6.672 0-2.802.76-5.021 2.27-6.656 1.51-1.646 3.56-2.469 6.15-2.469zm4.11 4.265c-1.01-1.197-2.38-1.796-4.11-1.796-1.72 0-3.1.599-4.12 1.796-1.01 1.198-1.52 2.818-1.52 4.86 0 2.042.51 3.661 1.52 4.859 1.02 1.198 2.4 1.797 4.12 1.797 1.73 0 3.1-.599 4.11-1.797 1.01-1.198 1.52-2.817 1.52-4.859s-.51-3.662-1.52-4.86zm15.08-4.265c2.59 0 4.63.823 6.14 2.469 1.51 1.635 2.27 3.854 2.27 6.656 0 2.812-.76 5.036-2.27 6.672-1.51 1.635-3.55 2.453-6.14 2.453s-4.64-.818-6.15-2.453c-1.51-1.636-2.27-3.86-2.27-6.672 0-2.802.76-5.021 2.27-6.656 1.51-1.646 3.56-2.469 6.15-2.469zm4.11 4.265c-1.01-1.197-2.38-1.796-4.11-1.796-1.73 0-3.1.599-4.12 1.796-1.01 1.198-1.52 2.818-1.52 4.86 0 2.042.51 3.661 1.52 4.859 1.02 1.198 2.39 1.797 4.12 1.797s3.1-.599 4.11-1.797c1.01-1.198 1.52-2.817 1.52-4.859s-.51-3.662-1.52-4.86zm18.47 11.266V940h-11.16v-17.656h2.72v15.234h8.44z" fill="#EBEBEB"/><path d="M509.242 1066.56c-3.094 0-5.593-.67-7.498-2.02-1.891-1.35-2.836-3.11-2.836-5.29 0-1.63.551-3.03 1.654-4.19 1.103-1.17 2.549-1.9 4.34-2.19v-.1c-1.49-.33-2.693-1.01-3.61-2.05a5.295 5.295 0 01-1.353-3.6c0-1.91.866-3.48 2.6-4.71 1.747-1.25 3.981-1.87 6.703-1.87 2.735 0 4.97.62 6.703 1.87 1.747 1.23 2.621 2.81 2.621 4.73 0 1.36-.458 2.55-1.375 3.58-.902 1.04-2.098 1.72-3.588 2.05v.1c1.79.29 3.237 1.02 4.34 2.19 1.103 1.18 1.654 2.58 1.654 4.22 0 2.16-.96 3.91-2.879 5.26-1.919 1.35-4.411 2.02-7.476 2.02zm0-3.87c1.389 0 2.528-.36 3.416-1.07.888-.73 1.332-1.65 1.332-2.75 0-1.12-.444-2.04-1.332-2.75-.888-.72-2.027-1.08-3.416-1.08-1.375 0-2.507.37-3.395 1.1-.888.71-1.332 1.62-1.332 2.73 0 1.1.444 2.02 1.332 2.75.888.71 2.02 1.07 3.395 1.07zm-2.879-12.46c.759.63 1.718.95 2.879.95 1.16 0 2.119-.32 2.879-.95.759-.64 1.138-1.45 1.138-2.43 0-.99-.379-1.8-1.138-2.45-.745-.64-1.705-.96-2.879-.96-1.161 0-2.12.32-2.879.96-.745.65-1.117 1.46-1.117 2.45 0 .98.372 1.79 1.117 2.43zm21.247-.36c.43.61.995.92 1.697.92.702 0 1.268-.31 1.697-.92.444-.62.666-1.45.666-2.5 0-1.06-.222-1.89-.666-2.51-.429-.62-.995-.92-1.697-.92-.702 0-1.267.3-1.697.92-.43.62-.645 1.45-.645 2.51 0 1.05.215 1.88.645 2.5zm1.697 4.16c-1.847 0-3.359-.62-4.533-1.87-1.174-1.24-1.762-2.84-1.762-4.79 0-1.96.588-3.56 1.762-4.81 1.174-1.25 2.686-1.87 4.533-1.87 1.862 0 3.38.62 4.555 1.87 1.174 1.25 1.762 2.85 1.762 4.81 0 1.97-.588 3.57-1.762 4.82-1.175 1.23-2.693 1.84-4.555 1.84zm2.149 11.97h-4.577l9.26-13.54 7.756-11.36h4.576l-8.636 12.65-8.379 12.25zm14.566-2.81c.702 0 1.268-.31 1.697-.93.444-.63.666-1.47.666-2.51 0-1.06-.222-1.9-.666-2.52-.429-.61-.995-.92-1.697-.92-.687 0-1.253.31-1.697.92-.43.62-.645 1.46-.645 2.52 0 1.04.215 1.88.645 2.51.444.62 1.01.93 1.697.93zm0 3.22c-1.848 0-3.359-.62-4.533-1.87-1.175-1.25-1.762-2.84-1.762-4.79 0-1.96.587-3.56 1.762-4.79 1.174-1.25 2.685-1.87 4.533-1.87 1.862 0 3.38.62 4.555 1.87 1.174 1.23 1.761 2.83 1.761 4.79s-.587 3.56-1.761 4.81c-1.175 1.23-2.693 1.85-4.555 1.85z" fill="#fff"/><path d="M394.188 1107h-7.36v-17.66h7.328c1.584 0 2.854.4 3.813 1.21.969.8 1.453 1.87 1.453 3.2 0 .94-.307 1.78-.922 2.52s-1.37 1.18-2.266 1.32v.1c1.23.13 2.219.6 2.969 1.39.75.78 1.125 1.75 1.125 2.92 0 1.55-.547 2.78-1.64 3.67-1.084.89-2.584 1.33-4.5 1.33zm-4.641-15.38v5.22h3.359c1.229 0 2.172-.23 2.828-.7.657-.47.985-1.13.985-2 0-.8-.281-1.42-.844-1.86-.563-.44-1.354-.66-2.375-.66h-3.953zm0 13.1h4.109c1.271 0 2.235-.25 2.891-.74.656-.5.984-1.22.984-2.17 0-1.89-1.354-2.84-4.062-2.84h-3.922v5.75zm16.25-15.38v11.21c0 1.27.401 2.29 1.203 3.07.812.79 1.927 1.18 3.344 1.18 1.427 0 2.541-.39 3.344-1.18.812-.78 1.218-1.8 1.218-3.07v-11.21h2.719v11.44c0 1.94-.656 3.51-1.969 4.72-1.312 1.2-3.083 1.8-5.312 1.8-2.219 0-3.985-.6-5.297-1.8-1.313-1.21-1.969-2.78-1.969-4.72v-11.44h2.719zm23.219 17.66h-2.719v-7.19l-6.344-10.47h3.031l4.641 7.77h.078l4.656-7.77h3.016l-6.359 10.47v7.19zm16.015 0h-7.359v-17.66H445c1.583 0 2.854.4 3.812 1.21.969.8 1.454 1.87 1.454 3.2 0 .94-.308 1.78-.922 2.52-.615.74-1.37 1.18-2.266 1.32v.1c1.229.13 2.219.6 2.969 1.39.75.78 1.125 1.75 1.125 2.92 0 1.55-.547 2.78-1.641 3.67-1.083.89-2.583 1.33-4.5 1.33zm-4.64-15.38v5.22h3.359c1.229 0 2.172-.23 2.828-.7.656-.47.984-1.13.984-2 0-.8-.281-1.42-.843-1.86-.563-.44-1.354-.66-2.375-.66h-3.953zm0 13.1h4.109c1.271 0 2.234-.25 2.891-.74.656-.5.984-1.22.984-2.17 0-1.89-1.354-2.84-4.063-2.84h-3.921v5.75zm25.265 2.28l-1.672-4.73h-6.906l-1.672 4.73h-2.828l6.516-17.66H462l6.516 17.66h-2.86zm-5.172-14.69l-2.703 7.72h5.485l-2.704-7.72h-.078zm17.391 14.99c-2.531 0-4.536-.82-6.016-2.46-1.479-1.63-2.218-3.86-2.218-6.67 0-2.8.744-5.02 2.234-6.65 1.49-1.65 3.49-2.47 6-2.47 2.031 0 3.745.56 5.141 1.7 1.406 1.14 2.229 2.63 2.468 4.48h-2.703c-.25-1.12-.823-2.02-1.719-2.7-.895-.69-1.958-1.03-3.187-1.03-1.656 0-2.979.6-3.969 1.81-.989 1.21-1.484 2.83-1.484 4.85 0 2.05.489 3.68 1.469 4.89.989 1.19 2.323 1.79 4 1.79 1.26 0 2.317-.29 3.171-.89.865-.6 1.438-1.43 1.719-2.5h2.719c-.354 1.85-1.198 3.28-2.531 4.32-1.334 1.02-3.031 1.53-5.094 1.53zm13.203-.3h-2.719v-17.66h2.719v8.38h.125l7.578-8.38h3.25l-7.172 7.83 7.782 9.83h-3.391l-6.312-7.91-1.86 2.07v5.84zm31.984 0l-1.671-4.73h-6.907l-1.672 4.73h-2.828l6.516-17.66h2.906l6.516 17.66h-2.86zm-5.171-14.69l-2.703 7.72h5.484l-2.703-7.72h-.078zm21.5 12.27v2.42h-11.157v-17.66h2.719v15.24h8.438zm13.875 0v2.42h-11.157v-17.66h2.719v15.24h8.438zm9.703-15.53c2.583 0 4.63.82 6.14 2.47 1.511 1.63 2.266 3.85 2.266 6.65 0 2.81-.755 5.04-2.266 6.67-1.51 1.64-3.557 2.46-6.14 2.46-2.594 0-4.646-.82-6.157-2.46-1.51-1.63-2.265-3.86-2.265-6.67 0-2.8.755-5.02 2.265-6.65 1.511-1.65 3.563-2.47 6.157-2.47zm4.109 4.26c-1.01-1.2-2.38-1.79-4.109-1.79s-3.104.59-4.125 1.79c-1.011 1.2-1.516 2.82-1.516 4.86 0 2.04.505 3.66 1.516 4.86 1.021 1.2 2.396 1.8 4.125 1.8s3.099-.6 4.109-1.8c1.011-1.2 1.516-2.82 1.516-4.86 0-2.04-.505-3.66-1.516-4.86zm14.891 13.99c-2.531 0-4.537-.82-6.016-2.46-1.479-1.63-2.219-3.86-2.219-6.67 0-2.8.745-5.02 2.235-6.65 1.489-1.65 3.489-2.47 6-2.47 2.031 0 3.745.56 5.14 1.7 1.407 1.14 2.23 2.63 2.469 4.48h-2.703c-.25-1.12-.823-2.02-1.719-2.7-.896-.69-1.958-1.03-3.187-1.03-1.657 0-2.979.6-3.969 1.81-.99 1.21-1.484 2.83-1.484 4.85 0 2.05.489 3.68 1.468 4.89.99 1.19 2.323 1.79 4 1.79 1.261 0 2.318-.29 3.172-.89.865-.6 1.438-1.43 1.719-2.5h2.719c-.354 1.85-1.198 3.28-2.532 4.32-1.333 1.02-3.031 1.53-5.093 1.53zm22.219-.3l-1.672-4.73h-6.907l-1.671 4.73h-2.829l6.516-17.66h2.906l6.516 17.66h-2.859zm-5.172-14.69l-2.704 7.72h5.485l-2.703-7.72h-.078zm15.015 14.69h-2.719v-15.23h-5.64v-2.43h14v2.43h-5.641V1107zm10.953 0h-2.718v-17.66h2.718V1107zm11.422-17.95c2.584 0 4.63.82 6.141 2.47 1.51 1.63 2.265 3.85 2.265 6.65 0 2.81-.755 5.04-2.265 6.67-1.511 1.64-3.557 2.46-6.141 2.46-2.594 0-4.646-.82-6.156-2.46-1.51-1.63-2.266-3.86-2.266-6.67 0-2.8.756-5.02 2.266-6.65 1.51-1.65 3.562-2.47 6.156-2.47zm4.11 4.26c-1.011-1.2-2.381-1.79-4.11-1.79-1.729 0-3.104.59-4.125 1.79-1.01 1.2-1.515 2.82-1.515 4.86 0 2.04.505 3.66 1.515 4.86 1.021 1.2 2.396 1.8 4.125 1.8s3.099-.6 4.11-1.8c1.01-1.2 1.515-2.82 1.515-4.86 0-2.04-.505-3.66-1.515-4.86zm9.968 13.69h-2.656v-17.66h2.484l9.407 12.89h.109v-12.89h2.656V1107H660l-9.406-12.88h-.11V1107z" fill="#EBEBEB"/><path d="M105.353 561.641c0-2.392.874-4.34 2.621-5.844 1.747-1.504 4.01-2.256 6.789-2.256 2.679 0 4.856.68 6.531 2.041 1.69 1.346 2.536 3.079 2.536 5.199 0 1.418-.409 2.736-1.225 3.953-.816 1.218-2.041 2.593-3.674 4.125l-6.209 5.78v.107h11.473V579h-18.541v-3.609l9.603-9.024c1.275-1.217 2.149-2.206 2.621-2.965.487-.773.731-1.575.731-2.406 0-.917-.38-1.69-1.139-2.32-.759-.645-1.719-.967-2.879-.967-1.232 0-2.256.372-3.072 1.117-.802.731-1.203 1.662-1.203 2.793v.086h-4.963v-.064zm26.855 1.224c.429.616.995.924 1.697.924.702 0 1.267-.308 1.697-.924.444-.616.666-1.446.666-2.492 0-1.06-.222-1.898-.666-2.514-.43-.616-.995-.923-1.697-.923-.702 0-1.268.307-1.697.923-.43.616-.645 1.454-.645 2.514 0 1.046.215 1.876.645 2.492zm1.697 4.168c-1.848 0-3.359-.623-4.533-1.869-1.175-1.246-1.762-2.843-1.762-4.791 0-1.962.587-3.566 1.762-4.812 1.174-1.247 2.685-1.87 4.533-1.87 1.862 0 3.38.623 4.555 1.87 1.174 1.246 1.761 2.85 1.761 4.812 0 1.962-.587 3.566-1.761 4.813-1.175 1.231-2.693 1.847-4.555 1.847zM136.053 579h-4.576l9.26-13.535 7.756-11.365h4.576l-8.637 12.654L136.053 579zm14.567-2.814c.702 0 1.267-.308 1.697-.924.444-.63.666-1.468.666-2.514 0-1.06-.222-1.898-.666-2.514-.43-.616-.995-.923-1.697-.923-.688 0-1.254.307-1.698.923-.429.616-.644 1.454-.644 2.514 0 1.046.215 1.884.644 2.514.444.616 1.01.924 1.698.924zm0 3.222c-1.848 0-3.359-.623-4.534-1.869-1.174-1.246-1.761-2.843-1.761-4.791 0-1.962.587-3.559 1.761-4.791 1.175-1.246 2.686-1.869 4.534-1.869 1.862 0 3.38.623 4.554 1.869 1.175 1.232 1.762 2.829 1.762 4.791 0 1.962-.587 3.566-1.762 4.813-1.174 1.231-2.692 1.847-4.554 1.847z" fill="#fff"/><path d="M19.125 620h-2.719v-15.234h-5.64v-2.422h14v2.422h-5.641V620zm10.953-15.312v6.296h4.078c1.094 0 1.938-.276 2.532-.828.604-.552.906-1.328.906-2.328 0-.969-.313-1.734-.938-2.297-.625-.562-1.484-.843-2.578-.843h-4zm0 8.546V620H27.36v-17.656h7.047c1.834 0 3.287.489 4.36 1.468 1.083.98 1.625 2.292 1.625 3.938 0 1.198-.313 2.25-.938 3.156-.625.896-1.484 1.526-2.578 1.891L40.938 620H37.78l-3.687-6.766h-4.016zM55.156 620l-1.672-4.734h-6.906L44.906 620h-2.828l6.516-17.656H51.5L58.016 620h-2.86zm-5.172-14.688l-2.703 7.719h5.485l-2.703-7.719h-.079zm13 14.688h-2.656v-17.656h2.484l9.407 12.89h.11v-12.89h2.655V620H72.5l-9.406-12.875h-.11V620zm14.844-4.922h2.688c.104.854.552 1.542 1.343 2.063.803.52 1.808.781 3.016.781 1.146 0 2.088-.25 2.828-.75.74-.511 1.11-1.151 1.11-1.922 0-.677-.266-1.229-.797-1.656-.521-.427-1.37-.782-2.547-1.063l-2.313-.547c-1.656-.385-2.88-.963-3.672-1.734-.78-.781-1.171-1.792-1.171-3.031 0-1.531.609-2.776 1.828-3.735 1.218-.958 2.786-1.437 4.703-1.437 1.885 0 3.422.479 4.61 1.437 1.187.948 1.806 2.188 1.859 3.719h-2.657c-.083-.864-.474-1.547-1.172-2.047-.687-.5-1.583-.75-2.687-.75-1.094 0-1.984.245-2.672.735-.688.479-1.031 1.104-1.031 1.875 0 .614.255 1.119.765 1.515.521.386 1.365.719 2.532 1l1.968.469c1.844.427 3.178 1.026 4 1.797.823.771 1.235 1.807 1.235 3.109 0 1.656-.625 2.969-1.875 3.938-1.24.968-2.922 1.453-5.047 1.453-1.99 0-3.604-.469-4.844-1.406-1.24-.948-1.906-2.219-2-3.813zM106.156 620l-1.672-4.734h-6.906L95.906 620h-2.828l6.516-17.656h2.906L109.016 620h-2.86zm-5.172-14.688l-2.703 7.719h5.485l-2.704-7.719h-.078zm17.391 14.985c-2.531 0-4.536-.818-6.016-2.453-1.479-1.636-2.218-3.86-2.218-6.672 0-2.802.744-5.021 2.234-6.656 1.49-1.646 3.49-2.469 6-2.469 2.031 0 3.745.568 5.141 1.703 1.406 1.135 2.229 2.63 2.468 4.484h-2.703c-.25-1.125-.823-2.026-1.719-2.703-.895-.687-1.958-1.031-3.187-1.031-1.656 0-2.979.604-3.969 1.812-.989 1.209-1.484 2.823-1.484 4.844 0 2.052.489 3.683 1.469 4.891.989 1.198 2.323 1.797 4 1.797 1.26 0 2.317-.297 3.171-.891.865-.604 1.438-1.437 1.719-2.5H126c-.354 1.844-1.198 3.281-2.531 4.313-1.334 1.02-3.031 1.531-5.094 1.531zm16.844-.297H132.5v-15.234h-5.641v-2.422h14v2.422h-5.64V620zm10.953 0h-2.719v-17.656h2.719V620zm11.422-17.953c2.583 0 4.63.823 6.14 2.469 1.511 1.635 2.266 3.854 2.266 6.656 0 2.812-.755 5.036-2.266 6.672-1.51 1.635-3.557 2.453-6.14 2.453-2.594 0-4.646-.818-6.156-2.453-1.511-1.636-2.266-3.86-2.266-6.672 0-2.802.755-5.021 2.266-6.656 1.51-1.646 3.562-2.469 6.156-2.469zm4.109 4.265c-1.01-1.197-2.38-1.796-4.109-1.796s-3.104.599-4.125 1.796c-1.011 1.198-1.516 2.818-1.516 4.86 0 2.042.505 3.661 1.516 4.859 1.021 1.198 2.396 1.797 4.125 1.797s3.099-.599 4.109-1.797c1.011-1.198 1.516-2.817 1.516-4.859s-.505-3.662-1.516-4.86zM171.672 620h-2.656v-17.656h2.484l9.406 12.89h.11v-12.89h2.656V620h-2.484l-9.407-12.875h-.109V620zm24.937 0h-2.718v-17.656h11.203v2.422h-8.485v5.515h7.766v2.36h-7.766V620zm22.641-2.422V620h-11.391v-17.656h11.391v2.422h-8.672v5.078h8.219v2.328h-8.219v5.406h8.672zm14.594 0V620h-11.391v-17.656h11.391v2.422h-8.672v5.078h8.219v2.328h-8.219v5.406h8.672zm2.39-2.5h2.688c.104.854.552 1.542 1.344 2.063.802.52 1.807.781 3.015.781 1.146 0 2.089-.25 2.828-.75.74-.511 1.11-1.151 1.11-1.922 0-.677-.266-1.229-.797-1.656-.521-.427-1.37-.782-2.547-1.063l-2.313-.547c-1.656-.385-2.88-.963-3.671-1.734-.782-.781-1.172-1.792-1.172-3.031 0-1.531.609-2.776 1.828-3.735 1.219-.958 2.786-1.437 4.703-1.437 1.885 0 3.422.479 4.609 1.437 1.188.948 1.808 2.188 1.86 3.719h-2.657c-.083-.864-.473-1.547-1.171-2.047-.688-.5-1.584-.75-2.688-.75-1.094 0-1.984.245-2.672.735-.687.479-1.031 1.104-1.031 1.875 0 .614.255 1.119.766 1.515.52.386 1.364.719 2.531 1l1.969.469c1.843.427 3.177 1.026 4 1.797.823.771 1.234 1.807 1.234 3.109 0 1.656-.625 2.969-1.875 3.938-1.24.968-2.922 1.453-5.047 1.453-1.989 0-3.604-.469-4.844-1.406-1.239-.948-1.906-2.219-2-3.813z" fill="#EBEBEB"/><defs><filter id="prefix__filter0_iii_12_136" x="346.203" y="102.759" width="758.556" height="489.173" filterUnits="userSpaceOnUse" color-interpolation-filters="sRGB"><feFlood flood-opacity="0" result="BackgroundImageFix"/><feBlend in="SourceGraphic" in2="BackgroundImageFix" result="shape"/><feColorMatrix in="SourceAlpha" values="0 0 0 0 0 0 0 0 0 0 0 0 0 0 0 0 0 0 127 0" result="hardAlpha"/><feOffset dy="22"/><feGaussianBlur stdDeviation="22.5"/><feComposite in2="hardAlpha" operator="arithmetic" k2="-1" k3="1"/><feColorMatrix values="0 0 0 0 0.234679 0 0 0 0 0.231419 0 0 0 0 0.231419 0 0 0 1 0"/><feBlend in2="shape" result="effect1_innerShadow_12_136"/><feColorMatrix in="SourceAlpha" values="0 0 0 0 0 0 0 0 0 0 0 0 0 0 0 0 0 0 127 0" result="hardAlpha"/><feOffset/><feGaussianBlur stdDeviation="17.5"/><feComposite in2="hardAlpha" operator="arithmetic" k2="-1" k3="1"/><feColorMatrix values="0 0 0 0 1 0 0 0 0 0.863889 0 0 0 0 0.863889 0 0 0 0.9 0"/><feBlend in2="effect1_innerShadow_12_136" result="effect2_innerShadow_12_136"/><feColorMatrix in="SourceAlpha" values="0 0 0 0 0 0 0 0 0 0 0 0 0 0 0 0 0 0 127 0" result="hardAlpha"/><feOffset dx="-35" dy="-20"/><feGaussianBlur stdDeviation="22.5"/><feComposite in2="hardAlpha" operator="arithmetic" k2="-1" k3="1"/><feColorMatrix values="0 0 0 0 0.022845 0 0 0 0 0.16753 0 0 0 0 0.456901 0 0 0 0.9 0"/><feBlend in2="effect2_innerShadow_12_136" result="effect3_innerShadow_12_136"/></filter><filter id="prefix__filter1_iii_12_136" x="692.792" y="643.65" width="395.746" height="389.239" filterUnits="userSpaceOnUse" color-interpolation-filters="sRGB"><feFlood flood-opacity="0" result="BackgroundImageFix"/><feBlend in="SourceGraphic" in2="BackgroundImageFix" result="shape"/><feColorMatrix in="SourceAlpha" values="0 0 0 0 0 0 0 0 0 0 0 0 0 0 0 0 0 0 127 0" result="hardAlpha"/><feOffset dy="22"/><feGaussianBlur stdDeviation="22.5"/><feComposite in2="hardAlpha" operator="arithmetic" k2="-1" k3="1"/><feColorMatrix values="0 0 0 0 0.0763455 0 0 0 0 0.0763455 0 0 0 0 0.0763455 0 0 0 1 0"/><feBlend in2="shape" result="effect1_innerShadow_12_136"/><feColorMatrix in="SourceAlpha" values="0 0 0 0 0 0 0 0 0 0 0 0 0 0 0 0 0 0 127 0" result="hardAlpha"/><feOffset/><feGaussianBlur stdDeviation="17.5"/><feComposite in2="hardAlpha" operator="arithmetic" k2="-1" k3="1"/><feColorMatrix values="0 0 0 0 0.606901 0 0 0 0 0.606901 0 0 0 0 0.606901 0 0 0 0.9 0"/><feBlend in2="effect1_innerShadow_12_136" result="effect2_innerShadow_12_136"/><feColorMatrix in="SourceAlpha" values="0 0 0 0 0 0 0 0 0 0 0 0 0 0 0 0 0 0 127 0" result="hardAlpha"/><feOffset dx="-35" dy="-20"/><feGaussianBlur stdDeviation="22.5"/><feComposite in2="hardAlpha" operator="arithmetic" k2="-1" k3="1"/><feColorMatrix values="0 0 0 0 0.12079 0 0 0 0 0.12079 0 0 0 0 0.12079 0 0 0 0.9 0"/><feBlend in2="effect2_innerShadow_12_136" result="effect3_innerShadow_12_136"/></filter><filter id="prefix__filter2_iii_12_136" x="347.542" y="735.012" width="316.022" height="319.714" filterUnits="userSpaceOnUse" color-interpolation-filters="sRGB"><feFlood flood-opacity="0" result="BackgroundImageFix"/><feBlend in="SourceGraphic" in2="BackgroundImageFix" result="shape"/><feColorMatrix in="SourceAlpha" values="0 0 0 0 0 0 0 0 0 0 0 0 0 0 0 0 0 0 127 0" result="hardAlpha"/><feOffset dy="22"/><feGaussianBlur stdDeviation="22.5"/><feComposite in2="hardAlpha" operator="arithmetic" k2="-1" k3="1"/><feColorMatrix values="0 0 0 0 0.234679 0 0 0 0 0.231419 0 0 0 0 0.231419 0 0 0 1 0"/><feBlend in2="shape" result="effect1_innerShadow_12_136"/><feColorMatrix in="SourceAlpha" values="0 0 0 0 0 0 0 0 0 0 0 0 0 0 0 0 0 0 127 0" result="hardAlpha"/><feOffset/><feGaussianBlur stdDeviation="17.5"/><feComposite in2="hardAlpha" operator="arithmetic" k2="-1" k3="1"/><feColorMatrix values="0 0 0 0 0.326346 0 0 0 0 0.237507 0 0 0 0 0.237507 0 0 0 0.9 0"/><feBlend in2="effect1_innerShadow_12_136" result="effect2_innerShadow_12_136"/><feColorMatrix in="SourceAlpha" values="0 0 0 0 0 0 0 0 0 0 0 0 0 0 0 0 0 0 127 0" result="hardAlpha"/><feOffset dx="-35" dy="-20"/><feGaussianBlur stdDeviation="22.5"/><feComposite in2="hardAlpha" operator="arithmetic" k2="-1" k3="1"/><feColorMatrix values="0 0 0 0 0.168627 0 0 0 0 0.0745098 0 0 0 0 0.168627 0 0 0 0.9 0"/><feBlend in2="effect2_innerShadow_12_136" result="effect3_innerShadow_12_136"/></filter><filter id="prefix__filter3_iii_12_136" x="231.4" y="412.396" width="263.85" height="316.913" filterUnits="userSpaceOnUse" color-interpolation-filters="sRGB"><feFlood flood-opacity="0" result="BackgroundImageFix"/><feBlend in="SourceGraphic" in2="BackgroundImageFix" result="shape"/><feColorMatrix in="SourceAlpha" values="0 0 0 0 0 0 0 0 0 0 0 0 0 0 0 0 0 0 127 0" result="hardAlpha"/><feOffset dy="22"/><feGaussianBlur stdDeviation="22.5"/><feComposite in2="hardAlpha" operator="arithmetic" k2="-1" k3="1"/><feColorMatrix values="0 0 0 0 0.256039 0 0 0 0 0.504123 0 0 0 0 0.215653 0 0 0 1 0"/><feBlend in2="shape" result="effect1_innerShadow_12_136"/><feColorMatrix in="SourceAlpha" values="0 0 0 0 0 0 0 0 0 0 0 0 0 0 0 0 0 0 127 0" result="hardAlpha"/><feOffset/><feGaussianBlur stdDeviation="17.5"/><feComposite in2="hardAlpha" operator="arithmetic" k2="-1" k3="1"/><feColorMatrix values="0 0 0 0 0.290263 0 0 0 0 0.87079 0 0 0 0 0.193509 0 0 0 1 0"/><feBlend in2="effect1_innerShadow_12_136" result="effect2_innerShadow_12_136"/><feColorMatrix in="SourceAlpha" values="0 0 0 0 0 0 0 0 0 0 0 0 0 0 0 0 0 0 127 0" result="hardAlpha"/><feOffset dx="-35" dy="-20"/><feGaussianBlur stdDeviation="22.5"/><feComposite in2="hardAlpha" operator="arithmetic" k2="-1" k3="1"/><feColorMatrix values="0 0 0 0 0.0666667 0 0 0 0 0.301961 0 0 0 0 0.027451 0 0 0 0.9 0"/><feBlend in2="effect2_innerShadow_12_136" result="effect3_innerShadow_12_136"/></filter><clipPath id="prefix__clip0_12_136"><path fill="#fff" transform="translate(508 551)" d="M0 0h369v114H0z"/></clipPath></defs></svg>