<svg width="1214" height="1174" viewBox="0 0 1214 1174" fill="none" xmlns="http://www.w3.org/2000/svg">
<circle cx="693" cy="608" r="280" stroke="#FFC600" stroke-width="140"/>
<g clip-path="url(#clip0_4_50)">
<path d="M557.355 600H551.87V575.575H542.908V570.903H566.318V575.575H557.355V600ZM582.326 570.395C586.676 570.395 590.121 571.749 592.66 574.457C595.199 577.149 596.469 580.814 596.469 585.452C596.469 590.073 595.199 593.737 592.66 596.446C590.121 599.137 586.676 600.483 582.326 600.483C577.959 600.483 574.506 599.137 571.967 596.446C569.428 593.754 568.158 590.09 568.158 585.452C568.158 580.814 569.428 577.149 571.967 574.457C574.506 571.749 577.959 570.395 582.326 570.395ZM582.326 575.143C579.702 575.143 577.62 576.074 576.08 577.936C574.54 579.781 573.769 582.286 573.769 585.452C573.769 588.617 574.54 591.131 576.08 592.993C577.62 594.838 579.702 595.76 582.326 595.76C584.933 595.76 586.998 594.838 588.521 592.993C590.062 591.131 590.832 588.617 590.832 585.452C590.832 582.286 590.062 579.781 588.521 577.936C586.998 576.074 584.933 575.143 582.326 575.143ZM612.731 600H607.246V575.575H598.284V570.903H621.694V575.575H612.731V600ZM641.587 600L639.098 592.688H628.257L625.794 600H620.106L630.618 570.903H636.889L647.401 600H641.587ZM633.589 576.235L629.526 588.422H637.829L633.741 576.235H633.589ZM670.544 595.328V600H651.654V570.903H657.163V595.328H670.544ZM685.346 591.774H690.703C690.856 593.043 691.533 594.067 692.735 594.846C693.953 595.608 695.468 595.989 697.28 595.989C699.04 595.989 700.47 595.625 701.571 594.897C702.688 594.152 703.246 593.213 703.246 592.078C703.246 591.063 702.84 590.25 702.028 589.641C701.215 589.015 699.878 588.49 698.016 588.067L694.182 587.203C688.782 586.036 686.082 583.361 686.082 579.18C686.082 576.573 687.115 574.457 689.18 572.832C691.262 571.207 693.936 570.395 697.203 570.395C700.504 570.395 703.162 571.19 705.176 572.782C707.19 574.373 708.231 576.472 708.299 579.078H703.043C702.925 577.775 702.332 576.751 701.266 576.006C700.216 575.245 698.854 574.864 697.178 574.864C695.536 574.864 694.199 575.228 693.166 575.955C692.151 576.666 691.643 577.589 691.643 578.723C691.643 579.654 692.041 580.416 692.836 581.008C693.632 581.584 694.935 582.075 696.746 582.481L700.199 583.243C703.212 583.903 705.396 584.884 706.75 586.188C708.121 587.474 708.807 589.209 708.807 591.393C708.807 594.186 707.74 596.403 705.608 598.045C703.492 599.67 700.623 600.483 697 600.483C693.53 600.483 690.746 599.704 688.647 598.147C686.565 596.59 685.464 594.465 685.346 591.774ZM719.407 570.903V589.209C719.407 591.173 719.999 592.739 721.184 593.907C722.369 595.075 724.028 595.659 726.161 595.659C728.294 595.659 729.953 595.075 731.137 593.907C732.339 592.739 732.94 591.173 732.94 589.209V570.903H738.45V589.717C738.45 592.933 737.333 595.532 735.098 597.512C732.881 599.493 729.902 600.483 726.161 600.483C722.42 600.483 719.441 599.501 717.223 597.537C715.006 595.557 713.897 592.95 713.897 589.717V570.903H719.407ZM744.784 570.903H756.845C759.841 570.903 762.27 571.808 764.132 573.62C765.994 575.431 766.925 577.809 766.925 580.754C766.925 583.683 765.969 586.052 764.056 587.864C762.143 589.675 759.663 590.58 756.616 590.58H750.294V600H744.784V570.903ZM750.294 575.397V586.137H755.372C757.268 586.137 758.732 585.672 759.765 584.741C760.814 583.81 761.339 582.481 761.339 580.754C761.339 579.045 760.814 577.724 759.765 576.793C758.732 575.862 757.277 575.397 755.398 575.397H750.294ZM771.863 570.903H783.924C786.92 570.903 789.349 571.808 791.211 573.62C793.073 575.431 794.004 577.809 794.004 580.754C794.004 583.683 793.047 586.052 791.134 587.864C789.222 589.675 786.742 590.58 783.695 590.58H777.373V600H771.863V570.903ZM777.373 575.397V586.137H782.451C784.347 586.137 785.811 585.672 786.843 584.741C787.893 583.81 788.418 582.481 788.418 580.754C788.418 579.045 787.893 577.724 786.843 576.793C785.811 575.862 784.355 575.397 782.476 575.397H777.373ZM817.832 595.328V600H798.942V570.903H804.451V595.328H817.832ZM832.114 600H826.604V588.778L816.219 570.903H822.262L829.346 583.446H829.473L836.557 570.903H842.549L832.114 588.778V600Z" fill="white"/>
<path d="M515.715 655V637.735H515.578L509.641 641.465V635.059L515.734 631.172H523.781V655H515.715ZM534.855 661.719H529.152L530.188 649.668H537.414L534.855 661.719ZM560.324 652.325C558.319 654.59 555.604 655.723 552.18 655.723C548.755 655.723 546.034 654.597 544.016 652.344C542.01 650.078 541.008 646.973 541.008 643.028C541.008 639.056 542.01 635.964 544.016 633.75C546.034 631.537 548.755 630.43 552.18 630.43C555.604 630.43 558.319 631.537 560.324 633.75C562.329 635.951 563.332 639.037 563.332 643.008C563.332 646.953 562.329 650.059 560.324 652.325ZM550.031 648.067C550.591 649.2 551.307 649.766 552.18 649.766C553.052 649.766 553.762 649.206 554.309 648.086C554.855 646.953 555.129 645.267 555.129 643.028C555.129 640.775 554.855 639.108 554.309 638.028C553.775 636.934 553.065 636.387 552.18 636.387C551.294 636.387 550.578 636.934 550.031 638.028C549.484 639.108 549.211 640.775 549.211 643.028C549.211 645.254 549.484 646.934 550.031 648.067ZM585.949 652.325C583.944 654.59 581.229 655.723 577.805 655.723C574.38 655.723 571.659 654.597 569.641 652.344C567.635 650.078 566.633 646.973 566.633 643.028C566.633 639.056 567.635 635.964 569.641 633.75C571.659 631.537 574.38 630.43 577.805 630.43C581.229 630.43 583.944 631.537 585.949 633.75C587.954 635.951 588.957 639.037 588.957 643.008C588.957 646.953 587.954 650.059 585.949 652.325ZM575.656 648.067C576.216 649.2 576.932 649.766 577.805 649.766C578.677 649.766 579.387 649.206 579.934 648.086C580.48 646.953 580.754 645.267 580.754 643.028C580.754 640.775 580.48 639.108 579.934 638.028C579.4 636.934 578.69 636.387 577.805 636.387C576.919 636.387 576.203 636.934 575.656 638.028C575.109 639.108 574.836 640.775 574.836 643.028C574.836 645.254 575.109 646.934 575.656 648.067ZM611.574 652.325C609.569 654.59 606.854 655.723 603.43 655.723C600.005 655.723 597.284 654.597 595.266 652.344C593.26 650.078 592.258 646.973 592.258 643.028C592.258 639.056 593.26 635.964 595.266 633.75C597.284 631.537 600.005 630.43 603.43 630.43C606.854 630.43 609.569 631.537 611.574 633.75C613.579 635.951 614.582 639.037 614.582 643.008C614.582 646.953 613.579 650.059 611.574 652.325ZM601.281 648.067C601.841 649.2 602.557 649.766 603.43 649.766C604.302 649.766 605.012 649.206 605.559 648.086C606.105 646.953 606.379 645.267 606.379 643.028C606.379 640.775 606.105 639.108 605.559 638.028C605.025 636.934 604.315 636.387 603.43 636.387C602.544 636.387 601.828 636.934 601.281 638.028C600.734 639.108 600.461 640.775 600.461 643.028C600.461 645.254 600.734 646.934 601.281 648.067ZM623.801 661.719H618.098L619.133 649.668H626.359L623.801 661.719ZM649.27 652.325C647.264 654.59 644.549 655.723 641.125 655.723C637.701 655.723 634.979 654.597 632.961 652.344C630.956 650.078 629.953 646.973 629.953 643.028C629.953 639.056 630.956 635.964 632.961 633.75C634.979 631.537 637.701 630.43 641.125 630.43C644.549 630.43 647.264 631.537 649.27 633.75C651.275 635.951 652.277 639.037 652.277 643.008C652.277 646.953 651.275 650.059 649.27 652.325ZM638.977 648.067C639.536 649.2 640.253 649.766 641.125 649.766C641.997 649.766 642.707 649.206 643.254 648.086C643.801 646.953 644.074 645.267 644.074 643.028C644.074 640.775 643.801 639.108 643.254 638.028C642.72 636.934 642.01 636.387 641.125 636.387C640.24 636.387 639.523 636.934 638.977 638.028C638.43 639.108 638.156 640.775 638.156 643.028C638.156 645.254 638.43 646.934 638.977 648.067ZM674.895 652.325C672.889 654.59 670.174 655.723 666.75 655.723C663.326 655.723 660.604 654.597 658.586 652.344C656.581 650.078 655.578 646.973 655.578 643.028C655.578 639.056 656.581 635.964 658.586 633.75C660.604 631.537 663.326 630.43 666.75 630.43C670.174 630.43 672.889 631.537 674.895 633.75C676.9 635.951 677.902 639.037 677.902 643.008C677.902 646.953 676.9 650.059 674.895 652.325ZM664.602 648.067C665.161 649.2 665.878 649.766 666.75 649.766C667.622 649.766 668.332 649.206 668.879 648.086C669.426 646.953 669.699 645.267 669.699 643.028C669.699 640.775 669.426 639.108 668.879 638.028C668.345 636.934 667.635 636.387 666.75 636.387C665.865 636.387 665.148 636.934 664.602 638.028C664.055 639.108 663.781 640.775 663.781 643.028C663.781 645.254 664.055 646.934 664.602 648.067ZM700.52 652.325C698.514 654.59 695.799 655.723 692.375 655.723C688.951 655.723 686.229 654.597 684.211 652.344C682.206 650.078 681.203 646.973 681.203 643.028C681.203 639.056 682.206 635.964 684.211 633.75C686.229 631.537 688.951 630.43 692.375 630.43C695.799 630.43 698.514 631.537 700.52 633.75C702.525 635.951 703.527 639.037 703.527 643.008C703.527 646.953 702.525 650.059 700.52 652.325ZM690.227 648.067C690.786 649.2 691.503 649.766 692.375 649.766C693.247 649.766 693.957 649.206 694.504 648.086C695.051 646.953 695.324 645.267 695.324 643.028C695.324 640.775 695.051 639.108 694.504 638.028C693.97 636.934 693.26 636.387 692.375 636.387C691.49 636.387 690.773 636.934 690.227 638.028C689.68 639.108 689.406 640.775 689.406 643.028C689.406 645.254 689.68 646.934 690.227 648.067ZM712.746 661.719H707.043L708.078 649.668H715.305L712.746 661.719ZM738.215 652.325C736.21 654.59 733.495 655.723 730.07 655.723C726.646 655.723 723.924 654.597 721.906 652.344C719.901 650.078 718.898 646.973 718.898 643.028C718.898 639.056 719.901 635.964 721.906 633.75C723.924 631.537 726.646 630.43 730.07 630.43C733.495 630.43 736.21 631.537 738.215 633.75C740.22 635.951 741.223 639.037 741.223 643.008C741.223 646.953 740.22 650.059 738.215 652.325ZM727.922 648.067C728.482 649.2 729.198 649.766 730.07 649.766C730.943 649.766 731.652 649.206 732.199 648.086C732.746 646.953 733.02 645.267 733.02 643.028C733.02 640.775 732.746 639.108 732.199 638.028C731.665 636.934 730.956 636.387 730.07 636.387C729.185 636.387 728.469 636.934 727.922 638.028C727.375 639.108 727.102 640.775 727.102 643.028C727.102 645.254 727.375 646.934 727.922 648.067ZM763.84 652.325C761.835 654.59 759.12 655.723 755.695 655.723C752.271 655.723 749.549 654.597 747.531 652.344C745.526 650.078 744.523 646.973 744.523 643.028C744.523 639.056 745.526 635.964 747.531 633.75C749.549 631.537 752.271 630.43 755.695 630.43C759.12 630.43 761.835 631.537 763.84 633.75C765.845 635.951 766.848 639.037 766.848 643.008C766.848 646.953 765.845 650.059 763.84 652.325ZM753.547 648.067C754.107 649.2 754.823 649.766 755.695 649.766C756.568 649.766 757.277 649.206 757.824 648.086C758.371 646.953 758.645 645.267 758.645 643.028C758.645 640.775 758.371 639.108 757.824 638.028C757.29 636.934 756.581 636.387 755.695 636.387C754.81 636.387 754.094 636.934 753.547 638.028C753 639.108 752.727 640.775 752.727 643.028C752.727 645.254 753 646.934 753.547 648.067ZM789.465 652.325C787.46 654.59 784.745 655.723 781.32 655.723C777.896 655.723 775.174 654.597 773.156 652.344C771.151 650.078 770.148 646.973 770.148 643.028C770.148 639.056 771.151 635.964 773.156 633.75C775.174 631.537 777.896 630.43 781.32 630.43C784.745 630.43 787.46 631.537 789.465 633.75C791.47 635.951 792.473 639.037 792.473 643.008C792.473 646.953 791.47 650.059 789.465 652.325ZM779.172 648.067C779.732 649.2 780.448 649.766 781.32 649.766C782.193 649.766 782.902 649.206 783.449 648.086C783.996 646.953 784.27 645.267 784.27 643.028C784.27 640.775 783.996 639.108 783.449 638.028C782.915 636.934 782.206 636.387 781.32 636.387C780.435 636.387 779.719 636.934 779.172 638.028C778.625 639.108 778.352 640.775 778.352 643.028C778.352 645.254 778.625 646.934 779.172 648.067ZM803.703 631.172H814.621C818.397 631.172 821.314 632.175 823.371 634.18C825.441 636.185 826.477 639.082 826.477 642.871C826.477 646.7 825.435 649.681 823.352 651.817C821.268 653.939 818.358 655 814.621 655H803.703V631.172ZM811.75 637.325V648.848H813.43C816.672 648.848 818.293 646.856 818.293 642.871C818.293 641.088 817.863 639.72 817.004 638.77C816.158 637.806 814.966 637.325 813.43 637.325H811.75ZM847.609 648.848V655H829.875V631.172H847.609V637.325H837.922V640.411H846.984V645.899H837.922V648.848H847.609ZM868.352 655H857.727L850.598 631.172H859.914L863.176 647.754H863.312L866.574 631.172H875.48L868.352 655Z" fill="white"/>
</g>
<g filter="url(#filter0_iii_4_50)">
<path d="M1076.31 568.856C1085.15 569.953 1089.57 570.502 1093.31 569.065C1096.47 567.853 1099.45 565.373 1101.21 562.492C1103.3 559.078 1103.55 554.892 1104.05 546.519C1108.85 465.969 1089.17 385.624 1047.29 316.183C1000.99 239.417 930.248 180.427 846.411 148.68C762.574 116.934 670.503 114.27 584.97 141.116C507.6 165.401 439.639 212.558 389.877 276.081C384.704 282.684 382.118 285.985 381.425 289.929C380.839 293.256 381.43 297.089 382.989 300.086C384.838 303.638 388.514 306.156 395.866 311.191L595.9 448.199C603.121 453.145 606.732 455.618 609.902 456.266C613.212 456.942 615.101 456.82 618.297 455.724C621.357 454.674 625.53 450.943 633.878 443.48C645.09 433.455 658.376 425.857 672.911 421.295C695.651 414.157 720.129 414.865 742.418 423.306C764.707 431.746 783.515 447.429 795.824 467.838C803.691 480.884 808.612 495.377 810.372 510.313C811.683 521.433 812.338 526.993 813.935 529.807C815.603 532.745 816.937 534.087 819.865 535.773C822.669 537.388 827.012 537.926 835.699 539.004L1076.31 568.856Z" fill="#2D436F"/>
</g>
<g filter="url(#filter1_iii_4_50)">
<path d="M750.37 979.573C752.032 991.622 752.863 997.647 756.155 1002.12C758.895 1005.85 763.416 1008.98 767.869 1010.23C773.218 1011.74 778.689 1010.5 789.632 1008.03C855.846 993.041 917.496 961.8 968.895 916.893C1020.29 871.985 1059.53 815.086 1083.26 751.481C1087.18 740.97 1089.15 735.714 1088.37 730.212C1087.73 725.631 1085.23 720.73 1081.91 717.515C1077.91 713.652 1072.05 712.02 1060.34 708.756L914.087 668.015C902.406 664.762 896.565 663.135 891.998 663.795C887.419 664.458 884.611 665.714 881.065 668.685C877.528 671.649 874.298 678.201 867.838 691.304C856.911 713.469 841.67 733.369 822.888 749.778C804.107 766.188 782.341 778.62 758.91 786.473C745.059 791.116 738.133 793.438 734.72 796.546C731.3 799.66 729.679 802.275 728.408 806.723C727.14 811.161 727.969 817.167 729.626 829.178L750.37 979.573Z" fill="black"/>
</g>
<g filter="url(#filter2_iii_4_50)">
<path d="M408.603 922.345C402.899 933.09 400.047 938.463 400.095 944.016C400.135 948.642 401.964 953.818 404.839 957.442C408.29 961.792 413.456 963.998 423.787 968.409C496.945 999.645 577.573 1009.2 656.004 995.917C667.079 994.042 672.617 993.105 676.989 989.681C680.632 986.829 683.619 982.224 684.739 977.735C686.083 972.347 684.565 966.457 681.53 954.676L642.979 805.038C639.952 793.291 638.439 787.418 635.575 783.789C632.709 780.158 630.198 778.345 625.85 776.768C621.504 775.192 614.231 775.687 599.684 776.679C576.07 778.288 552.356 775.479 529.772 768.397C515.859 764.034 508.903 761.853 504.309 762.37C499.712 762.888 496.847 764.064 493.213 766.925C489.58 769.784 486.736 775.141 481.049 785.855L408.603 922.345Z" fill="#2B132B"/>
</g>
<g filter="url(#filter3_iii_4_50)">
<path d="M313.12 522.524C301.38 519.359 295.51 517.777 290.097 519.068C285.598 520.142 280.94 523.101 278.056 526.718C274.587 531.068 273.609 536.579 271.652 547.6C258.403 622.244 266.647 699.148 295.416 769.288C299.664 779.644 301.788 784.823 306.101 788.339C309.686 791.262 314.865 793.166 319.49 793.262C325.053 793.377 330.455 790.586 341.258 785.005L471.331 717.808C482.095 712.247 487.476 709.467 490.369 705.891C493.277 702.294 494.47 699.503 495.061 694.915C495.649 690.354 493.581 683.316 489.444 669.241C483.252 648.171 480.892 626.153 482.477 604.248C483.536 589.616 484.066 582.3 482.525 577.967C480.975 573.608 479.217 571.134 475.612 568.235C472.028 565.353 466.179 563.777 454.482 560.624L313.12 522.524Z" fill="#114D07"/>
</g>
<path d="M721.7 59.5587C719.867 59.5587 718.22 59.1791 716.759 58.42C715.312 57.6465 714.145 56.5365 713.257 55.0899C711.824 52.9128 711.108 50.127 711.108 46.7325C711.108 42.6218 712.061 39.3991 713.966 37.0645C715.871 34.7156 718.477 33.5411 721.786 33.5411C724.221 33.5411 726.305 34.1856 728.038 35.4747C729.771 36.7494 730.817 38.4109 731.175 40.459H725.89C725.646 39.657 725.145 39.0124 724.386 38.5255C723.641 38.0241 722.767 37.7735 721.765 37.7735C719.988 37.7735 718.599 38.5613 717.597 40.1368C716.608 41.698 716.15 43.8536 716.222 46.6036H716.307C716.823 45.3718 717.682 44.3907 718.886 43.6602C720.089 42.9154 721.492 42.543 723.097 42.543C725.517 42.543 727.522 43.3236 729.112 44.8848C730.702 46.4317 731.497 48.3939 731.497 50.7715C731.497 53.3353 730.58 55.4408 728.747 57.088C726.914 58.7351 724.565 59.5587 721.7 59.5587ZM721.657 55.3262C722.946 55.3262 724.042 54.8965 724.944 54.0372C725.847 53.1778 726.298 52.1394 726.298 50.9219C726.298 49.6615 725.854 48.6231 724.966 47.8067C724.092 46.976 722.996 46.5606 721.679 46.5606C720.361 46.5606 719.258 46.976 718.37 47.8067C717.482 48.6231 717.038 49.6472 717.038 50.879C717.038 52.1251 717.482 53.1778 718.37 54.0372C719.258 54.8965 720.354 55.3262 721.657 55.3262ZM746.148 59.5587C742.94 59.5587 740.412 58.3985 738.564 56.0782C736.731 53.7436 735.814 50.5567 735.814 46.5176C735.814 42.4929 736.738 39.3204 738.586 37.0001C740.434 34.6797 742.954 33.5196 746.148 33.5196C749.342 33.5196 751.856 34.6797 753.689 37.0001C755.523 39.3061 756.439 42.4714 756.439 46.4962C756.439 50.5352 755.523 53.7221 753.689 56.0567C751.856 58.3913 749.342 59.5587 746.148 59.5587ZM746.148 55.2833C747.667 55.2833 748.855 54.5241 749.715 53.0059C750.574 51.4734 751.004 49.3106 751.004 46.5176C751.004 43.739 750.567 41.5977 749.693 40.0938C748.834 38.5756 747.652 37.8165 746.148 37.8165C744.63 37.8165 743.434 38.5756 742.561 40.0938C741.701 41.612 741.271 43.7533 741.271 46.5176C741.271 49.2963 741.701 51.4519 742.561 52.9844C743.42 54.517 744.616 55.2833 746.148 55.2833ZM764.431 42.8653C764.86 43.4812 765.426 43.7891 766.128 43.7891C766.83 43.7891 767.396 43.4812 767.825 42.8653C768.269 42.2494 768.491 41.4187 768.491 40.3731C768.491 39.3132 768.269 38.4753 767.825 37.8594C767.396 37.2436 766.83 36.9356 766.128 36.9356C765.426 36.9356 764.86 37.2436 764.431 37.8594C764.001 38.4753 763.786 39.3132 763.786 40.3731C763.786 41.4187 764.001 42.2494 764.431 42.8653ZM766.128 47.0333C764.28 47.0333 762.769 46.4102 761.595 45.1641C760.42 43.918 759.833 42.321 759.833 40.3731C759.833 38.4109 760.42 36.8067 761.595 35.5606C762.769 34.3145 764.28 33.6915 766.128 33.6915C767.99 33.6915 769.508 34.3145 770.683 35.5606C771.857 36.8067 772.444 38.4109 772.444 40.3731C772.444 42.3353 771.857 43.9395 770.683 45.1856C769.508 46.4174 767.99 47.0333 766.128 47.0333ZM768.276 59.0001H763.7L772.96 45.4649L780.716 34.0997H785.292L776.655 46.754L768.276 59.0001ZM782.843 56.1856C783.545 56.1856 784.11 55.8777 784.54 55.2618C784.984 54.6316 785.206 53.7937 785.206 52.7481C785.206 51.6882 784.984 50.8503 784.54 50.2344C784.11 49.6186 783.545 49.3106 782.843 49.3106C782.155 49.3106 781.59 49.6186 781.146 50.2344C780.716 50.8503 780.501 51.6882 780.501 52.7481C780.501 53.7937 780.716 54.6316 781.146 55.2618C781.59 55.8777 782.155 56.1856 782.843 56.1856ZM782.843 59.4083C780.995 59.4083 779.484 58.7852 778.31 57.5391C777.135 56.293 776.548 54.696 776.548 52.7481C776.548 50.7859 777.135 49.1889 778.31 47.9571C779.484 46.711 780.995 46.088 782.843 46.088C784.705 46.088 786.223 46.711 787.398 47.9571C788.572 49.1889 789.159 50.7859 789.159 52.7481C789.159 54.7103 788.572 56.3145 787.398 57.5606C786.223 58.7924 784.705 59.4083 782.843 59.4083Z" fill="white"/>
<path d="M672.547 100H669.828V82.3438H681.031V84.7657H672.547V90.2813H680.312V92.6407H672.547V100ZM694.219 100L692.547 95.2657H685.641L683.969 100H681.141L687.656 82.3438H690.562L697.078 100H694.219ZM689.047 85.3126L686.344 93.0313H691.828L689.125 85.3126H689.047ZM702.109 100H699.391V82.3438H702.109V100ZM708.484 84.6876V90.9844H712.562C713.656 90.9844 714.5 90.7084 715.094 90.1563C715.698 89.6042 716 88.8282 716 87.8282C716 86.8594 715.688 86.0938 715.062 85.5313C714.438 84.9688 713.578 84.6876 712.484 84.6876H708.484ZM708.484 93.2344V100H705.766V82.3438H712.812C714.646 82.3438 716.099 82.8334 717.172 83.8126C718.255 84.7917 718.797 86.1042 718.797 87.7501C718.797 88.948 718.484 90.0001 717.859 90.9063C717.234 91.8021 716.375 92.4324 715.281 92.7969L719.344 100H716.188L712.5 93.2344H708.484ZM739.547 97.5782V100H728.391V82.3438H731.109V97.5782H739.547ZM754 100L752.328 95.2657H745.422L743.75 100H740.922L747.438 82.3438H750.344L756.859 100H754ZM748.828 85.3126L746.125 93.0313H751.609L748.906 85.3126H748.828ZM761.891 82.3438V93.5469C761.891 94.8178 762.292 95.8438 763.094 96.6251C763.906 97.4063 765.021 97.7969 766.438 97.7969C767.865 97.7969 768.979 97.4063 769.781 96.6251C770.594 95.8438 771 94.8178 771 93.5469V82.3438H773.719V93.7813C773.719 95.7188 773.062 97.2917 771.75 98.5001C770.438 99.698 768.667 100.297 766.438 100.297C764.219 100.297 762.453 99.698 761.141 98.5001C759.828 97.2917 759.172 95.7188 759.172 93.7813V82.3438H761.891ZM780.047 100H777.391V82.3438H779.875L789.281 95.2344H789.391V82.3438H792.047V100H789.562L780.156 87.1251H780.047V100ZM803.281 100.297C800.75 100.297 798.745 99.4792 797.266 97.8438C795.786 96.2084 795.047 93.9844 795.047 91.1719C795.047 88.3699 795.792 86.1511 797.281 84.5157C798.771 82.8699 800.771 82.0469 803.281 82.0469C805.312 82.0469 807.026 82.6146 808.422 83.7501C809.828 84.8855 810.651 86.3803 810.891 88.2344H808.188C807.938 87.1094 807.365 86.2084 806.469 85.5313C805.573 84.8438 804.51 84.5001 803.281 84.5001C801.625 84.5001 800.302 85.1042 799.312 86.3126C798.323 87.5209 797.828 89.1355 797.828 91.1563C797.828 93.2084 798.318 94.8386 799.297 96.0469C800.286 97.2449 801.62 97.8438 803.297 97.8438C804.557 97.8438 805.615 97.5469 806.469 96.9532C807.333 96.349 807.906 95.5157 808.188 94.4532H810.906C810.552 96.2969 809.708 97.7344 808.375 98.7657C807.042 99.7865 805.344 100.297 803.281 100.297ZM828.531 100H825.812V92.2188H816.484V100H813.766V82.3438H816.484V89.7813H825.812V82.3438H828.531V100Z" fill="#EBEBEB"/>
<path d="M1070.85 899V894.617H1058.17V890.063C1060.22 886.224 1063.62 880.903 1068.38 874.1H1075.94V890.342H1079.25V894.617H1075.94V899H1070.85ZM1062.88 890.363V890.514H1070.96V877.881H1070.87C1068.91 880.631 1067.33 882.93 1066.14 884.777C1064.95 886.611 1063.87 888.473 1062.88 890.363ZM1089.82 888.172V884.326H1092.89C1094.11 884.326 1095.09 884.018 1095.83 883.402C1096.58 882.772 1096.95 881.949 1096.95 880.932C1096.95 879.929 1096.59 879.134 1095.88 878.547C1095.16 877.96 1094.16 877.666 1092.87 877.666C1091.65 877.666 1090.66 877.988 1089.88 878.633C1089.11 879.277 1088.69 880.137 1088.62 881.211H1083.7C1083.8 878.891 1084.7 877.036 1086.4 875.647C1088.11 874.243 1090.34 873.541 1093.11 873.541C1095.76 873.541 1097.9 874.157 1099.55 875.389C1101.2 876.606 1102.02 878.21 1102.02 880.201C1102.02 881.719 1101.53 883.001 1100.56 884.047C1099.6 885.078 1098.33 885.73 1096.76 886.002V886.131C1098.68 886.288 1100.2 886.897 1101.31 887.957C1102.44 889.017 1103.01 890.399 1103.01 892.104C1103.01 894.338 1102.08 896.143 1100.22 897.518C1098.35 898.878 1095.94 899.559 1092.98 899.559C1090.11 899.559 1087.79 898.857 1086.02 897.453C1084.25 896.035 1083.32 894.166 1083.2 891.846H1088.31C1088.4 892.877 1088.87 893.708 1089.71 894.338C1090.56 894.954 1091.67 895.262 1093.04 895.262C1094.37 895.262 1095.45 894.94 1096.29 894.295C1097.13 893.636 1097.55 892.791 1097.55 891.76C1097.55 890.643 1097.14 889.769 1096.31 889.139C1095.49 888.494 1094.37 888.172 1092.93 888.172H1089.82ZM1111.15 882.865C1111.58 883.481 1112.15 883.789 1112.85 883.789C1113.55 883.789 1114.12 883.481 1114.55 882.865C1114.99 882.249 1115.21 881.419 1115.21 880.373C1115.21 879.313 1114.99 878.475 1114.55 877.859C1114.12 877.244 1113.55 876.936 1112.85 876.936C1112.15 876.936 1111.58 877.244 1111.15 877.859C1110.72 878.475 1110.51 879.313 1110.51 880.373C1110.51 881.419 1110.72 882.249 1111.15 882.865ZM1112.85 887.033C1111 887.033 1109.49 886.41 1108.32 885.164C1107.14 883.918 1106.55 882.321 1106.55 880.373C1106.55 878.411 1107.14 876.807 1108.32 875.561C1109.49 874.315 1111 873.691 1112.85 873.691C1114.71 873.691 1116.23 874.315 1117.4 875.561C1118.58 876.807 1119.17 878.411 1119.17 880.373C1119.17 882.335 1118.58 883.94 1117.4 885.186C1116.23 886.417 1114.71 887.033 1112.85 887.033ZM1115 899H1110.42L1119.68 885.465L1127.44 874.1H1132.01L1123.38 886.754L1115 899ZM1129.56 896.186C1130.27 896.186 1130.83 895.878 1131.26 895.262C1131.7 894.632 1131.93 893.794 1131.93 892.748C1131.93 891.688 1131.7 890.85 1131.26 890.234C1130.83 889.619 1130.27 889.311 1129.56 889.311C1128.88 889.311 1128.31 889.619 1127.87 890.234C1127.44 890.85 1127.22 891.688 1127.22 892.748C1127.22 893.794 1127.44 894.632 1127.87 895.262C1128.31 895.878 1128.88 896.186 1129.56 896.186ZM1129.56 899.408C1127.72 899.408 1126.2 898.785 1125.03 897.539C1123.86 896.293 1123.27 894.696 1123.27 892.748C1123.27 890.786 1123.86 889.189 1125.03 887.957C1126.2 886.711 1127.72 886.088 1129.56 886.088C1131.43 886.088 1132.94 886.711 1134.12 887.957C1135.29 889.189 1135.88 890.786 1135.88 892.748C1135.88 894.71 1135.29 896.315 1134.12 897.561C1132.94 898.792 1131.43 899.408 1129.56 899.408Z" fill="white"/>
<path d="M1011.98 937.578V940H1000.83V922.344H1003.55V937.578H1011.98ZM1017.42 940H1014.7V922.344H1017.42V940ZM1036.47 941.859H1033.59L1032.03 939.781C1031.08 940.125 1030.02 940.297 1028.84 940.297C1026.25 940.297 1024.2 939.484 1022.69 937.859C1021.18 936.224 1020.42 933.995 1020.42 931.172C1020.42 928.37 1021.18 926.151 1022.69 924.516C1024.2 922.87 1026.25 922.047 1028.84 922.047C1031.43 922.047 1033.47 922.87 1034.98 924.516C1036.49 926.151 1037.25 928.37 1037.25 931.172C1037.25 932.807 1036.98 934.26 1036.44 935.531C1035.9 936.792 1035.12 937.807 1034.11 938.578L1036.47 941.859ZM1028.84 937.844C1029.47 937.844 1030.04 937.766 1030.55 937.609L1028.39 934.641H1031.19L1032.5 936.266C1033.81 935.12 1034.47 933.422 1034.47 931.172C1034.47 929.13 1033.96 927.51 1032.95 926.313C1031.94 925.104 1030.57 924.5 1028.84 924.5C1027.11 924.5 1025.74 925.104 1024.72 926.313C1023.71 927.51 1023.2 929.13 1023.2 931.172C1023.2 933.214 1023.71 934.839 1024.72 936.047C1025.74 937.245 1027.11 937.844 1028.84 937.844ZM1042.98 922.344V933.547C1042.98 934.818 1043.39 935.844 1044.19 936.625C1045 937.406 1046.11 937.797 1047.53 937.797C1048.96 937.797 1050.07 937.406 1050.88 936.625C1051.69 935.844 1052.09 934.818 1052.09 933.547V922.344H1054.81V933.781C1054.81 935.719 1054.16 937.292 1052.84 938.5C1051.53 939.698 1049.76 940.297 1047.53 940.297C1045.31 940.297 1043.55 939.698 1042.23 938.5C1040.92 937.292 1040.27 935.719 1040.27 933.781V922.344H1042.98ZM1061.2 940H1058.48V922.344H1061.2V940ZM1064.86 922.344H1071.27C1073.95 922.344 1076.05 923.115 1077.55 924.656C1079.05 926.198 1079.8 928.359 1079.8 931.141C1079.8 933.932 1079.05 936.109 1077.55 937.672C1076.05 939.224 1073.95 940 1071.27 940H1064.86V922.344ZM1067.58 924.766V937.578H1071.03C1072.96 937.578 1074.44 937.026 1075.47 935.922C1076.5 934.818 1077.02 933.229 1077.02 931.156C1077.02 929.104 1076.5 927.526 1075.47 926.422C1074.44 925.318 1072.96 924.766 1071.03 924.766H1067.58ZM1085.52 940H1082.8V922.344H1085.52V940ZM1096.47 940H1093.75V924.766H1088.11V922.344H1102.11V924.766H1096.47V940ZM1112.42 940H1109.7V932.813L1103.36 922.344H1106.39L1111.03 930.109H1111.11L1115.77 922.344H1118.78L1112.42 932.813V940ZM1127.64 922.344H1134.66C1136.41 922.344 1137.83 922.885 1138.92 923.969C1140.03 925.042 1140.58 926.443 1140.58 928.172C1140.58 929.901 1140.02 931.307 1138.89 932.391C1137.78 933.464 1136.34 934 1134.58 934H1130.36V940H1127.64V922.344ZM1130.36 924.703V931.656H1133.94C1135.17 931.656 1136.11 931.354 1136.78 930.75C1137.46 930.135 1137.8 929.276 1137.8 928.172C1137.8 927.068 1137.46 926.214 1136.78 925.609C1136.11 925.005 1135.17 924.703 1133.95 924.703H1130.36ZM1151.12 922.047C1153.71 922.047 1155.76 922.87 1157.27 924.516C1158.78 926.151 1159.53 928.37 1159.53 931.172C1159.53 933.984 1158.78 936.208 1157.27 937.844C1155.76 939.479 1153.71 940.297 1151.12 940.297C1148.53 940.297 1146.48 939.479 1144.97 937.844C1143.46 936.208 1142.7 933.984 1142.7 931.172C1142.7 928.37 1143.46 926.151 1144.97 924.516C1146.48 922.87 1148.53 922.047 1151.12 922.047ZM1155.23 926.313C1154.22 925.115 1152.85 924.516 1151.12 924.516C1149.4 924.516 1148.02 925.115 1147 926.313C1145.99 927.51 1145.48 929.13 1145.48 931.172C1145.48 933.214 1145.99 934.833 1147 936.031C1148.02 937.229 1149.4 937.828 1151.12 937.828C1152.85 937.828 1154.22 937.229 1155.23 936.031C1156.24 934.833 1156.75 933.214 1156.75 931.172C1156.75 929.13 1156.24 927.51 1155.23 926.313ZM1170.31 922.047C1172.9 922.047 1174.94 922.87 1176.45 924.516C1177.96 926.151 1178.72 928.37 1178.72 931.172C1178.72 933.984 1177.96 936.208 1176.45 937.844C1174.94 939.479 1172.9 940.297 1170.31 940.297C1167.72 940.297 1165.67 939.479 1164.16 937.844C1162.65 936.208 1161.89 933.984 1161.89 931.172C1161.89 928.37 1162.65 926.151 1164.16 924.516C1165.67 922.87 1167.72 922.047 1170.31 922.047ZM1174.42 926.313C1173.41 925.115 1172.04 924.516 1170.31 924.516C1168.58 924.516 1167.21 925.115 1166.19 926.313C1165.18 927.51 1164.67 929.13 1164.67 931.172C1164.67 933.214 1165.18 934.833 1166.19 936.031C1167.21 937.229 1168.58 937.828 1170.31 937.828C1172.04 937.828 1173.41 937.229 1174.42 936.031C1175.43 934.833 1175.94 933.214 1175.94 931.172C1175.94 929.13 1175.43 927.51 1174.42 926.313ZM1192.89 937.578V940H1181.73V922.344H1184.45V937.578H1192.89Z" fill="#EBEBEB"/>
<path d="M509.242 1041.56C506.148 1041.56 503.649 1040.89 501.744 1039.54C499.853 1038.19 498.908 1036.43 498.908 1034.25C498.908 1032.62 499.459 1031.22 500.562 1030.06C501.665 1028.89 503.111 1028.16 504.902 1027.87V1027.77C503.412 1027.44 502.209 1026.76 501.292 1025.72C500.39 1024.69 499.939 1023.49 499.939 1022.12C499.939 1020.21 500.805 1018.64 502.539 1017.41C504.286 1016.16 506.52 1015.54 509.242 1015.54C511.977 1015.54 514.212 1016.16 515.945 1017.41C517.692 1018.64 518.566 1020.22 518.566 1022.14C518.566 1023.5 518.108 1024.69 517.191 1025.72C516.289 1026.76 515.093 1027.44 513.603 1027.77V1027.87C515.393 1028.16 516.84 1028.89 517.943 1030.06C519.046 1031.24 519.597 1032.64 519.597 1034.28C519.597 1036.44 518.637 1038.19 516.718 1039.54C514.799 1040.89 512.307 1041.56 509.242 1041.56ZM509.242 1037.69C510.631 1037.69 511.77 1037.33 512.658 1036.62C513.546 1035.89 513.99 1034.97 513.99 1033.87C513.99 1032.75 513.546 1031.83 512.658 1031.12C511.77 1030.4 510.631 1030.04 509.242 1030.04C507.867 1030.04 506.735 1030.41 505.847 1031.14C504.959 1031.85 504.515 1032.76 504.515 1033.87C504.515 1034.97 504.959 1035.89 505.847 1036.62C506.735 1037.33 507.867 1037.69 509.242 1037.69ZM506.363 1025.23C507.122 1025.86 508.081 1026.18 509.242 1026.18C510.402 1026.18 511.361 1025.86 512.121 1025.23C512.88 1024.59 513.259 1023.78 513.259 1022.8C513.259 1021.81 512.88 1021 512.121 1020.35C511.376 1019.71 510.416 1019.39 509.242 1019.39C508.081 1019.39 507.122 1019.71 506.363 1020.35C505.618 1021 505.246 1021.81 505.246 1022.8C505.246 1023.78 505.618 1024.59 506.363 1025.23ZM527.61 1024.87C528.04 1025.48 528.605 1025.79 529.307 1025.79C530.009 1025.79 530.575 1025.48 531.004 1024.87C531.448 1024.25 531.67 1023.42 531.67 1022.37C531.67 1021.31 531.448 1020.48 531.004 1019.86C530.575 1019.24 530.009 1018.94 529.307 1018.94C528.605 1018.94 528.04 1019.24 527.61 1019.86C527.18 1020.48 526.965 1021.31 526.965 1022.37C526.965 1023.42 527.18 1024.25 527.61 1024.87ZM529.307 1029.03C527.46 1029.03 525.948 1028.41 524.774 1027.16C523.6 1025.92 523.012 1024.32 523.012 1022.37C523.012 1020.41 523.6 1018.81 524.774 1017.56C525.948 1016.31 527.46 1015.69 529.307 1015.69C531.169 1015.69 532.687 1016.31 533.862 1017.56C535.036 1018.81 535.624 1020.41 535.624 1022.37C535.624 1024.34 535.036 1025.94 533.862 1027.19C532.687 1028.42 531.169 1029.03 529.307 1029.03ZM531.456 1041H526.879L536.139 1027.46L543.895 1016.1H548.471L539.835 1028.75L531.456 1041ZM546.022 1038.19C546.724 1038.19 547.29 1037.88 547.719 1037.26C548.163 1036.63 548.385 1035.79 548.385 1034.75C548.385 1033.69 548.163 1032.85 547.719 1032.23C547.29 1031.62 546.724 1031.31 546.022 1031.31C545.335 1031.31 544.769 1031.62 544.325 1032.23C543.895 1032.85 543.68 1033.69 543.68 1034.75C543.68 1035.79 543.895 1036.63 544.325 1037.26C544.769 1037.88 545.335 1038.19 546.022 1038.19ZM546.022 1041.41C544.174 1041.41 542.663 1040.79 541.489 1039.54C540.314 1038.29 539.727 1036.7 539.727 1034.75C539.727 1032.79 540.314 1031.19 541.489 1029.96C542.663 1028.71 544.174 1028.09 546.022 1028.09C547.884 1028.09 549.402 1028.71 550.577 1029.96C551.751 1031.19 552.338 1032.79 552.338 1034.75C552.338 1036.71 551.751 1038.31 550.577 1039.56C549.402 1040.79 547.884 1041.41 546.022 1041.41Z" fill="white"/>
<path d="M394.188 1082H386.828V1064.34H394.156C395.74 1064.34 397.01 1064.74 397.969 1065.55C398.938 1066.35 399.422 1067.42 399.422 1068.75C399.422 1069.69 399.115 1070.53 398.5 1071.27C397.885 1072.01 397.13 1072.45 396.234 1072.59V1072.69C397.464 1072.82 398.453 1073.29 399.203 1074.08C399.953 1074.86 400.328 1075.83 400.328 1077C400.328 1078.55 399.781 1079.78 398.688 1080.67C397.604 1081.56 396.104 1082 394.188 1082ZM389.547 1066.63V1071.84H392.906C394.135 1071.84 395.078 1071.61 395.734 1071.14C396.391 1070.67 396.719 1070.01 396.719 1069.14C396.719 1068.34 396.438 1067.72 395.875 1067.28C395.312 1066.84 394.521 1066.63 393.5 1066.63H389.547ZM389.547 1079.72H393.656C394.927 1079.72 395.891 1079.47 396.547 1078.98C397.203 1078.48 397.531 1077.76 397.531 1076.81C397.531 1074.92 396.177 1073.97 393.469 1073.97H389.547V1079.72ZM405.797 1064.34V1075.55C405.797 1076.82 406.198 1077.84 407 1078.63C407.812 1079.41 408.927 1079.8 410.344 1079.8C411.771 1079.8 412.885 1079.41 413.688 1078.63C414.5 1077.84 414.906 1076.82 414.906 1075.55V1064.34H417.625V1075.78C417.625 1077.72 416.969 1079.29 415.656 1080.5C414.344 1081.7 412.573 1082.3 410.344 1082.3C408.125 1082.3 406.359 1081.7 405.047 1080.5C403.734 1079.29 403.078 1077.72 403.078 1075.78V1064.34H405.797ZM429.016 1082H426.297V1074.81L419.953 1064.34H422.984L427.625 1072.11H427.703L432.359 1064.34H435.375L429.016 1074.81V1082ZM445.031 1082H437.672V1064.34H445C446.583 1064.34 447.854 1064.74 448.812 1065.55C449.781 1066.35 450.266 1067.42 450.266 1068.75C450.266 1069.69 449.958 1070.53 449.344 1071.27C448.729 1072.01 447.974 1072.45 447.078 1072.59V1072.69C448.307 1072.82 449.297 1073.29 450.047 1074.08C450.797 1074.86 451.172 1075.83 451.172 1077C451.172 1078.55 450.625 1079.78 449.531 1080.67C448.448 1081.56 446.948 1082 445.031 1082ZM440.391 1066.63V1071.84H443.75C444.979 1071.84 445.922 1071.61 446.578 1071.14C447.234 1070.67 447.562 1070.01 447.562 1069.14C447.562 1068.34 447.281 1067.72 446.719 1067.28C446.156 1066.84 445.365 1066.63 444.344 1066.63H440.391ZM440.391 1079.72H444.5C445.771 1079.72 446.734 1079.47 447.391 1078.98C448.047 1078.48 448.375 1077.76 448.375 1076.81C448.375 1074.92 447.021 1073.97 444.312 1073.97H440.391V1079.72ZM465.656 1082L463.984 1077.27H457.078L455.406 1082H452.578L459.094 1064.34H462L468.516 1082H465.656ZM460.484 1067.31L457.781 1075.03H463.266L460.562 1067.31H460.484ZM477.875 1082.3C475.344 1082.3 473.339 1081.48 471.859 1079.84C470.38 1078.21 469.641 1075.98 469.641 1073.17C469.641 1070.37 470.385 1068.15 471.875 1066.52C473.365 1064.87 475.365 1064.05 477.875 1064.05C479.906 1064.05 481.62 1064.61 483.016 1065.75C484.422 1066.89 485.245 1068.38 485.484 1070.23H482.781C482.531 1069.11 481.958 1068.21 481.062 1067.53C480.167 1066.84 479.104 1066.5 477.875 1066.5C476.219 1066.5 474.896 1067.1 473.906 1068.31C472.917 1069.52 472.422 1071.14 472.422 1073.16C472.422 1075.21 472.911 1076.84 473.891 1078.05C474.88 1079.24 476.214 1079.84 477.891 1079.84C479.151 1079.84 480.208 1079.55 481.062 1078.95C481.927 1078.35 482.5 1077.52 482.781 1076.45H485.5C485.146 1078.3 484.302 1079.73 482.969 1080.77C481.635 1081.79 479.938 1082.3 477.875 1082.3ZM491.078 1082H488.359V1064.34H491.078V1072.72H491.203L498.781 1064.34H502.031L494.859 1072.17L502.641 1082H499.25L492.938 1074.09L491.078 1076.16V1082ZM523.062 1082L521.391 1077.27H514.484L512.812 1082H509.984L516.5 1064.34H519.406L525.922 1082H523.062ZM517.891 1067.31L515.188 1075.03H520.672L517.969 1067.31H517.891ZM539.391 1079.58V1082H528.234V1064.34H530.953V1079.58H539.391ZM553.266 1079.58V1082H542.109V1064.34H544.828V1079.58H553.266ZM562.969 1064.05C565.552 1064.05 567.599 1064.87 569.109 1066.52C570.62 1068.15 571.375 1070.37 571.375 1073.17C571.375 1075.98 570.62 1078.21 569.109 1079.84C567.599 1081.48 565.552 1082.3 562.969 1082.3C560.375 1082.3 558.323 1081.48 556.812 1079.84C555.302 1078.21 554.547 1075.98 554.547 1073.17C554.547 1070.37 555.302 1068.15 556.812 1066.52C558.323 1064.87 560.375 1064.05 562.969 1064.05ZM567.078 1068.31C566.068 1067.11 564.698 1066.52 562.969 1066.52C561.24 1066.52 559.865 1067.11 558.844 1068.31C557.833 1069.51 557.328 1071.13 557.328 1073.17C557.328 1075.21 557.833 1076.83 558.844 1078.03C559.865 1079.23 561.24 1079.83 562.969 1079.83C564.698 1079.83 566.068 1079.23 567.078 1078.03C568.089 1076.83 568.594 1075.21 568.594 1073.17C568.594 1071.13 568.089 1069.51 567.078 1068.31ZM581.969 1082.3C579.438 1082.3 577.432 1081.48 575.953 1079.84C574.474 1078.21 573.734 1075.98 573.734 1073.17C573.734 1070.37 574.479 1068.15 575.969 1066.52C577.458 1064.87 579.458 1064.05 581.969 1064.05C584 1064.05 585.714 1064.61 587.109 1065.75C588.516 1066.89 589.339 1068.38 589.578 1070.23H586.875C586.625 1069.11 586.052 1068.21 585.156 1067.53C584.26 1066.84 583.198 1066.5 581.969 1066.5C580.312 1066.5 578.99 1067.1 578 1068.31C577.01 1069.52 576.516 1071.14 576.516 1073.16C576.516 1075.21 577.005 1076.84 577.984 1078.05C578.974 1079.24 580.307 1079.84 581.984 1079.84C583.245 1079.84 584.302 1079.55 585.156 1078.95C586.021 1078.35 586.594 1077.52 586.875 1076.45H589.594C589.24 1078.3 588.396 1079.73 587.062 1080.77C585.729 1081.79 584.031 1082.3 581.969 1082.3ZM604.188 1082L602.516 1077.27H595.609L593.938 1082H591.109L597.625 1064.34H600.531L607.047 1082H604.188ZM599.016 1067.31L596.312 1075.03H601.797L599.094 1067.31H599.016ZM614.031 1082H611.312V1066.77H605.672V1064.34H619.672V1066.77H614.031V1082ZM624.984 1082H622.266V1064.34H624.984V1082ZM636.406 1064.05C638.99 1064.05 641.036 1064.87 642.547 1066.52C644.057 1068.15 644.812 1070.37 644.812 1073.17C644.812 1075.98 644.057 1078.21 642.547 1079.84C641.036 1081.48 638.99 1082.3 636.406 1082.3C633.812 1082.3 631.76 1081.48 630.25 1079.84C628.74 1078.21 627.984 1075.98 627.984 1073.17C627.984 1070.37 628.74 1068.15 630.25 1066.52C631.76 1064.87 633.812 1064.05 636.406 1064.05ZM640.516 1068.31C639.505 1067.11 638.135 1066.52 636.406 1066.52C634.677 1066.52 633.302 1067.11 632.281 1068.31C631.271 1069.51 630.766 1071.13 630.766 1073.17C630.766 1075.21 631.271 1076.83 632.281 1078.03C633.302 1079.23 634.677 1079.83 636.406 1079.83C638.135 1079.83 639.505 1079.23 640.516 1078.03C641.526 1076.83 642.031 1075.21 642.031 1073.17C642.031 1071.13 641.526 1069.51 640.516 1068.31ZM650.484 1082H647.828V1064.34H650.312L659.719 1077.23H659.828V1064.34H662.484V1082H660L650.594 1069.13H650.484V1082Z" fill="#EBEBEB"/>
<path d="M105.353 641.641C105.353 639.249 106.227 637.301 107.974 635.797C109.721 634.293 111.984 633.541 114.763 633.541C117.442 633.541 119.619 634.221 121.294 635.582C122.984 636.928 123.83 638.662 123.83 640.781C123.83 642.199 123.421 643.517 122.605 644.734C121.789 645.952 120.564 647.327 118.931 648.859L112.722 654.639V654.746H124.195V659H105.654V655.391L115.257 646.367C116.532 645.15 117.406 644.162 117.878 643.402C118.365 642.629 118.609 641.827 118.609 640.996C118.609 640.079 118.229 639.306 117.47 638.676C116.711 638.031 115.751 637.709 114.591 637.709C113.359 637.709 112.335 638.081 111.519 638.826C110.717 639.557 110.316 640.488 110.316 641.619V641.705H105.353V641.641ZM132.208 642.865C132.637 643.481 133.203 643.789 133.905 643.789C134.607 643.789 135.172 643.481 135.602 642.865C136.046 642.249 136.268 641.419 136.268 640.373C136.268 639.313 136.046 638.475 135.602 637.859C135.172 637.244 134.607 636.936 133.905 636.936C133.203 636.936 132.637 637.244 132.208 637.859C131.778 638.475 131.563 639.313 131.563 640.373C131.563 641.419 131.778 642.249 132.208 642.865ZM133.905 647.033C132.057 647.033 130.546 646.41 129.372 645.164C128.197 643.918 127.61 642.321 127.61 640.373C127.61 638.411 128.197 636.807 129.372 635.561C130.546 634.315 132.057 633.691 133.905 633.691C135.767 633.691 137.285 634.315 138.46 635.561C139.634 636.807 140.221 638.411 140.221 640.373C140.221 642.335 139.634 643.94 138.46 645.186C137.285 646.417 135.767 647.033 133.905 647.033ZM136.053 659H131.477L140.737 645.465L148.493 634.1H153.069L144.432 646.754L136.053 659ZM150.62 656.186C151.322 656.186 151.887 655.878 152.317 655.262C152.761 654.632 152.983 653.794 152.983 652.748C152.983 651.688 152.761 650.85 152.317 650.234C151.887 649.619 151.322 649.311 150.62 649.311C149.932 649.311 149.366 649.619 148.922 650.234C148.493 650.85 148.278 651.688 148.278 652.748C148.278 653.794 148.493 654.632 148.922 655.262C149.366 655.878 149.932 656.186 150.62 656.186ZM150.62 659.408C148.772 659.408 147.261 658.785 146.086 657.539C144.912 656.293 144.325 654.696 144.325 652.748C144.325 650.786 144.912 649.189 146.086 647.957C147.261 646.711 148.772 646.088 150.62 646.088C152.482 646.088 154 646.711 155.174 647.957C156.349 649.189 156.936 650.786 156.936 652.748C156.936 654.71 156.349 656.315 155.174 657.561C154 658.792 152.482 659.408 150.62 659.408Z" fill="white"/>
<path d="M19.125 700H16.4062V684.766H10.7656V682.344H24.7656V684.766H19.125V700ZM30.0781 684.688V690.984H34.1562C35.25 690.984 36.0938 690.708 36.6875 690.156C37.2917 689.604 37.5938 688.828 37.5938 687.828C37.5938 686.859 37.2812 686.094 36.6562 685.531C36.0312 684.969 35.1719 684.688 34.0781 684.688H30.0781ZM30.0781 693.234V700H27.3594V682.344H34.4062C36.2396 682.344 37.6927 682.833 38.7656 683.813C39.849 684.792 40.3906 686.104 40.3906 687.75C40.3906 688.948 40.0781 690 39.4531 690.906C38.8281 691.802 37.9688 692.432 36.875 692.797L40.9375 700H37.7812L34.0938 693.234H30.0781ZM55.1562 700L53.4844 695.266H46.5781L44.9062 700H42.0781L48.5938 682.344H51.5L58.0156 700H55.1562ZM49.9844 685.313L47.2812 693.031H52.7656L50.0625 685.313H49.9844ZM62.9844 700H60.3281V682.344H62.8125L72.2188 695.234H72.3281V682.344H74.9844V700H72.5L63.0938 687.125H62.9844V700ZM77.8281 695.078H80.5156C80.6198 695.932 81.0677 696.62 81.8594 697.141C82.6615 697.662 83.6667 697.922 84.875 697.922C86.0208 697.922 86.9635 697.672 87.7031 697.172C88.4427 696.662 88.8125 696.021 88.8125 695.25C88.8125 694.573 88.5469 694.021 88.0156 693.594C87.4948 693.167 86.6458 692.813 85.4688 692.531L83.1562 691.984C81.5 691.599 80.276 691.021 79.4844 690.25C78.7031 689.469 78.3125 688.458 78.3125 687.219C78.3125 685.688 78.9219 684.443 80.1406 683.484C81.3594 682.526 82.9271 682.047 84.8438 682.047C86.7292 682.047 88.2656 682.526 89.4531 683.484C90.6406 684.432 91.2604 685.672 91.3125 687.203H88.6562C88.5729 686.339 88.1823 685.656 87.4844 685.156C86.7969 684.656 85.901 684.406 84.7969 684.406C83.7031 684.406 82.8125 684.651 82.125 685.141C81.4375 685.62 81.0938 686.245 81.0938 687.016C81.0938 687.63 81.349 688.135 81.8594 688.531C82.3802 688.917 83.224 689.25 84.3906 689.531L86.3594 690C88.2031 690.427 89.5365 691.026 90.3594 691.797C91.1823 692.568 91.5938 693.604 91.5938 694.906C91.5938 696.563 90.9688 697.875 89.7188 698.844C88.4792 699.813 86.7969 700.297 84.6719 700.297C82.6823 700.297 81.0677 699.828 79.8281 698.891C78.5885 697.943 77.9219 696.672 77.8281 695.078ZM106.156 700L104.484 695.266H97.5781L95.9062 700H93.0781L99.5938 682.344H102.5L109.016 700H106.156ZM100.984 685.313L98.2812 693.031H103.766L101.062 685.313H100.984ZM118.375 700.297C115.844 700.297 113.839 699.479 112.359 697.844C110.88 696.208 110.141 693.984 110.141 691.172C110.141 688.37 110.885 686.151 112.375 684.516C113.865 682.87 115.865 682.047 118.375 682.047C120.406 682.047 122.12 682.615 123.516 683.75C124.922 684.885 125.745 686.38 125.984 688.234H123.281C123.031 687.109 122.458 686.208 121.562 685.531C120.667 684.844 119.604 684.5 118.375 684.5C116.719 684.5 115.396 685.104 114.406 686.313C113.417 687.521 112.922 689.135 112.922 691.156C112.922 693.208 113.411 694.839 114.391 696.047C115.38 697.245 116.714 697.844 118.391 697.844C119.651 697.844 120.708 697.547 121.562 696.953C122.427 696.349 123 695.516 123.281 694.453H126C125.646 696.297 124.802 697.734 123.469 698.766C122.135 699.787 120.438 700.297 118.375 700.297ZM135.219 700H132.5V684.766H126.859V682.344H140.859V684.766H135.219V700ZM146.172 700H143.453V682.344H146.172V700ZM157.594 682.047C160.177 682.047 162.224 682.87 163.734 684.516C165.245 686.151 166 688.37 166 691.172C166 693.984 165.245 696.208 163.734 697.844C162.224 699.479 160.177 700.297 157.594 700.297C155 700.297 152.948 699.479 151.438 697.844C149.927 696.208 149.172 693.984 149.172 691.172C149.172 688.37 149.927 686.151 151.438 684.516C152.948 682.87 155 682.047 157.594 682.047ZM161.703 686.313C160.693 685.115 159.323 684.516 157.594 684.516C155.865 684.516 154.49 685.115 153.469 686.313C152.458 687.51 151.953 689.13 151.953 691.172C151.953 693.214 152.458 694.833 153.469 696.031C154.49 697.229 155.865 697.828 157.594 697.828C159.323 697.828 160.693 697.229 161.703 696.031C162.714 694.833 163.219 693.214 163.219 691.172C163.219 689.13 162.714 687.51 161.703 686.313ZM171.672 700H169.016V682.344H171.5L180.906 695.234H181.016V682.344H183.672V700H181.188L171.781 687.125H171.672V700ZM196.609 700H193.891V682.344H205.094V684.766H196.609V690.281H204.375V692.641H196.609V700ZM219.25 697.578V700H207.859V682.344H219.25V684.766H210.578V689.844H218.797V692.172H210.578V697.578H219.25ZM233.844 697.578V700H222.453V682.344H233.844V684.766H225.172V689.844H233.391V692.172H225.172V697.578H233.844ZM236.234 695.078H238.922C239.026 695.932 239.474 696.62 240.266 697.141C241.068 697.662 242.073 697.922 243.281 697.922C244.427 697.922 245.37 697.672 246.109 697.172C246.849 696.662 247.219 696.021 247.219 695.25C247.219 694.573 246.953 694.021 246.422 693.594C245.901 693.167 245.052 692.813 243.875 692.531L241.562 691.984C239.906 691.599 238.682 691.021 237.891 690.25C237.109 689.469 236.719 688.458 236.719 687.219C236.719 685.688 237.328 684.443 238.547 683.484C239.766 682.526 241.333 682.047 243.25 682.047C245.135 682.047 246.672 682.526 247.859 683.484C249.047 684.432 249.667 685.672 249.719 687.203H247.062C246.979 686.339 246.589 685.656 245.891 685.156C245.203 684.656 244.307 684.406 243.203 684.406C242.109 684.406 241.219 684.651 240.531 685.141C239.844 685.62 239.5 686.245 239.5 687.016C239.5 687.63 239.755 688.135 240.266 688.531C240.786 688.917 241.63 689.25 242.797 689.531L244.766 690C246.609 690.427 247.943 691.026 248.766 691.797C249.589 692.568 250 693.604 250 694.906C250 696.563 249.375 697.875 248.125 698.844C246.885 699.813 245.203 700.297 243.078 700.297C241.089 700.297 239.474 699.828 238.234 698.891C236.995 697.943 236.328 696.672 236.234 695.078Z" fill="#EBEBEB"/>
<defs>
<filter id="filter0_iii_4_50" x="346.203" y="102.759" width="758.556" height="489.173" filterUnits="userSpaceOnUse" color-interpolation-filters="sRGB">
<feFlood flood-opacity="0" result="BackgroundImageFix"/>
<feBlend mode="normal" in="SourceGraphic" in2="BackgroundImageFix" result="shape"/>
<feColorMatrix in="SourceAlpha" type="matrix" values="0 0 0 0 0 0 0 0 0 0 0 0 0 0 0 0 0 0 127 0" result="hardAlpha"/>
<feOffset dy="22"/>
<feGaussianBlur stdDeviation="22.5"/>
<feComposite in2="hardAlpha" operator="arithmetic" k2="-1" k3="1"/>
<feColorMatrix type="matrix" values="0 0 0 0 0.234679 0 0 0 0 0.231419 0 0 0 0 0.231419 0 0 0 1 0"/>
<feBlend mode="normal" in2="shape" result="effect1_innerShadow_4_50"/>
<feColorMatrix in="SourceAlpha" type="matrix" values="0 0 0 0 0 0 0 0 0 0 0 0 0 0 0 0 0 0 127 0" result="hardAlpha"/>
<feOffset/>
<feGaussianBlur stdDeviation="17.5"/>
<feComposite in2="hardAlpha" operator="arithmetic" k2="-1" k3="1"/>
<feColorMatrix type="matrix" values="0 0 0 0 1 0 0 0 0 0.863889 0 0 0 0 0.863889 0 0 0 0.9 0"/>
<feBlend mode="normal" in2="effect1_innerShadow_4_50" result="effect2_innerShadow_4_50"/>
<feColorMatrix in="SourceAlpha" type="matrix" values="0 0 0 0 0 0 0 0 0 0 0 0 0 0 0 0 0 0 127 0" result="hardAlpha"/>
<feOffset dx="-35" dy="-20"/>
<feGaussianBlur stdDeviation="22.5"/>
<feComposite in2="hardAlpha" operator="arithmetic" k2="-1" k3="1"/>
<feColorMatrix type="matrix" values="0 0 0 0 0.022845 0 0 0 0 0.16753 0 0 0 0 0.456901 0 0 0 0.9 0"/>
<feBlend mode="normal" in2="effect2_innerShadow_4_50" result="effect3_innerShadow_4_50"/>
</filter>
<filter id="filter1_iii_4_50" x="692.792" y="643.65" width="395.746" height="389.239" filterUnits="userSpaceOnUse" color-interpolation-filters="sRGB">
<feFlood flood-opacity="0" result="BackgroundImageFix"/>
<feBlend mode="normal" in="SourceGraphic" in2="BackgroundImageFix" result="shape"/>
<feColorMatrix in="SourceAlpha" type="matrix" values="0 0 0 0 0 0 0 0 0 0 0 0 0 0 0 0 0 0 127 0" result="hardAlpha"/>
<feOffset dy="22"/>
<feGaussianBlur stdDeviation="22.5"/>
<feComposite in2="hardAlpha" operator="arithmetic" k2="-1" k3="1"/>
<feColorMatrix type="matrix" values="0 0 0 0 0.0763455 0 0 0 0 0.0763455 0 0 0 0 0.0763455 0 0 0 1 0"/>
<feBlend mode="normal" in2="shape" result="effect1_innerShadow_4_50"/>
<feColorMatrix in="SourceAlpha" type="matrix" values="0 0 0 0 0 0 0 0 0 0 0 0 0 0 0 0 0 0 127 0" result="hardAlpha"/>
<feOffset/>
<feGaussianBlur stdDeviation="17.5"/>
<feComposite in2="hardAlpha" operator="arithmetic" k2="-1" k3="1"/>
<feColorMatrix type="matrix" values="0 0 0 0 0.606901 0 0 0 0 0.606901 0 0 0 0 0.606901 0 0 0 0.9 0"/>
<feBlend mode="normal" in2="effect1_innerShadow_4_50" result="effect2_innerShadow_4_50"/>
<feColorMatrix in="SourceAlpha" type="matrix" values="0 0 0 0 0 0 0 0 0 0 0 0 0 0 0 0 0 0 127 0" result="hardAlpha"/>
<feOffset dx="-35" dy="-20"/>
<feGaussianBlur stdDeviation="22.5"/>
<feComposite in2="hardAlpha" operator="arithmetic" k2="-1" k3="1"/>
<feColorMatrix type="matrix" values="0 0 0 0 0.12079 0 0 0 0 0.12079 0 0 0 0 0.12079 0 0 0 0.9 0"/>
<feBlend mode="normal" in2="effect2_innerShadow_4_50" result="effect3_innerShadow_4_50"/>
</filter>
<filter id="filter2_iii_4_50" x="365.095" y="742.295" width="320.137" height="281.443" filterUnits="userSpaceOnUse" color-interpolation-filters="sRGB">
<feFlood flood-opacity="0" result="BackgroundImageFix"/>
<feBlend mode="normal" in="SourceGraphic" in2="BackgroundImageFix" result="shape"/>
<feColorMatrix in="SourceAlpha" type="matrix" values="0 0 0 0 0 0 0 0 0 0 0 0 0 0 0 0 0 0 127 0" result="hardAlpha"/>
<feOffset dy="22"/>
<feGaussianBlur stdDeviation="22.5"/>
<feComposite in2="hardAlpha" operator="arithmetic" k2="-1" k3="1"/>
<feColorMatrix type="matrix" values="0 0 0 0 0.234679 0 0 0 0 0.231419 0 0 0 0 0.231419 0 0 0 1 0"/>
<feBlend mode="normal" in2="shape" result="effect1_innerShadow_4_50"/>
<feColorMatrix in="SourceAlpha" type="matrix" values="0 0 0 0 0 0 0 0 0 0 0 0 0 0 0 0 0 0 127 0" result="hardAlpha"/>
<feOffset/>
<feGaussianBlur stdDeviation="17.5"/>
<feComposite in2="hardAlpha" operator="arithmetic" k2="-1" k3="1"/>
<feColorMatrix type="matrix" values="0 0 0 0 0.326346 0 0 0 0 0.237507 0 0 0 0 0.237507 0 0 0 0.9 0"/>
<feBlend mode="normal" in2="effect1_innerShadow_4_50" result="effect2_innerShadow_4_50"/>
<feColorMatrix in="SourceAlpha" type="matrix" values="0 0 0 0 0 0 0 0 0 0 0 0 0 0 0 0 0 0 127 0" result="hardAlpha"/>
<feOffset dx="-35" dy="-20"/>
<feGaussianBlur stdDeviation="22.5"/>
<feComposite in2="hardAlpha" operator="arithmetic" k2="-1" k3="1"/>
<feColorMatrix type="matrix" values="0 0 0 0 0.168627 0 0 0 0 0.0745098 0 0 0 0 0.168627 0 0 0 0.9 0"/>
<feBlend mode="normal" in2="effect2_innerShadow_4_50" result="effect3_innerShadow_4_50"/>
</filter>
<filter id="filter3_iii_4_50" x="230.498" y="498.617" width="264.662" height="316.648" filterUnits="userSpaceOnUse" color-interpolation-filters="sRGB">
<feFlood flood-opacity="0" result="BackgroundImageFix"/>
<feBlend mode="normal" in="SourceGraphic" in2="BackgroundImageFix" result="shape"/>
<feColorMatrix in="SourceAlpha" type="matrix" values="0 0 0 0 0 0 0 0 0 0 0 0 0 0 0 0 0 0 127 0" result="hardAlpha"/>
<feOffset dy="22"/>
<feGaussianBlur stdDeviation="22.5"/>
<feComposite in2="hardAlpha" operator="arithmetic" k2="-1" k3="1"/>
<feColorMatrix type="matrix" values="0 0 0 0 0.256039 0 0 0 0 0.504123 0 0 0 0 0.215653 0 0 0 1 0"/>
<feBlend mode="normal" in2="shape" result="effect1_innerShadow_4_50"/>
<feColorMatrix in="SourceAlpha" type="matrix" values="0 0 0 0 0 0 0 0 0 0 0 0 0 0 0 0 0 0 127 0" result="hardAlpha"/>
<feOffset/>
<feGaussianBlur stdDeviation="17.5"/>
<feComposite in2="hardAlpha" operator="arithmetic" k2="-1" k3="1"/>
<feColorMatrix type="matrix" values="0 0 0 0 0.290263 0 0 0 0 0.87079 0 0 0 0 0.193509 0 0 0 1 0"/>
<feBlend mode="normal" in2="effect1_innerShadow_4_50" result="effect2_innerShadow_4_50"/>
<feColorMatrix in="SourceAlpha" type="matrix" values="0 0 0 0 0 0 0 0 0 0 0 0 0 0 0 0 0 0 127 0" result="hardAlpha"/>
<feOffset dx="-35" dy="-20"/>
<feGaussianBlur stdDeviation="22.5"/>
<feComposite in2="hardAlpha" operator="arithmetic" k2="-1" k3="1"/>
<feColorMatrix type="matrix" values="0 0 0 0 0.0666667 0 0 0 0 0.301961 0 0 0 0 0.027451 0 0 0 0.9 0"/>
<feBlend mode="normal" in2="effect2_innerShadow_4_50" result="effect3_innerShadow_4_50"/>
</filter>
<clipPath id="clip0_4_50">
<rect width="369" height="114" fill="white" transform="translate(508 551)"/>
</clipPath>
</defs>
</svg>
